<svg width="18" height="20" viewBox="0 0 18 20" fill="none" xmlns="http://www.w3.org/2000/svg">
<path id="Union" fill-rule="evenodd" clip-rule="evenodd" d="M4.28711 7.09603C4.28711 4.98228 5.67785 3.18841 7.5927 2.58105C8.26079 2.3945 8.98083 2.34173 9.74252 2.43694L9.74521 2.43727C9.96653 2.4641 10.1855 2.50877 10.403 2.56751C12.3388 3.16258 13.7578 4.97286 13.7578 7.09603V9.72719C13.7578 10.0923 13.8329 10.5112 13.9362 10.888C14.0398 11.2657 14.1876 11.6587 14.365 11.9661L14.3684 11.972L15.4183 13.7158L15.4187 13.7164C15.7807 14.3206 15.4867 15.1017 14.8304 15.3187L14.8282 15.3194C11.0543 16.5803 6.98305 16.5805 3.20903 15.3199C2.80463 15.1827 2.57627 14.932 2.4813 14.6755C2.38655 14.4196 2.39667 14.0829 2.61705 13.7166L3.66395 11.9778L3.66558 11.9751C3.85061 11.6647 4.00188 11.2688 4.10698 10.8902C4.21201 10.5118 4.28711 10.0925 4.28711 9.72719V7.09603ZM15.2124 7.09603C15.2124 4.46826 13.5555 2.21089 11.2342 1.31643C10.7993 0.542788 9.97085 0.0229492 9.02244 0.0229492C8.07533 0.0229492 7.24783 0.541358 6.81246 1.31324C4.48662 2.20416 2.83257 4.45918 2.83257 7.09603V9.72719C2.83257 9.91725 2.78932 10.1989 2.70543 10.5011C2.62182 10.8023 2.51395 11.0659 2.41694 11.229L2.4162 11.2303L1.37072 12.9667C0.944692 13.6747 0.854665 14.4714 1.11726 15.1806C1.37954 15.8889 1.96564 16.4347 2.744 16.6981L2.7467 16.699C3.73153 17.028 4.73517 17.2775 5.74853 17.4475C5.92195 17.9558 6.20973 18.4129 6.57816 18.7813C7.2002 19.4033 8.0748 19.7955 9.02255 19.7955C10.539 19.7955 11.8339 18.8092 12.2982 17.4457C13.3074 17.2758 14.3071 17.0271 15.288 16.6994C16.834 16.1875 17.5046 14.3658 16.6656 12.9675L15.6219 11.234C15.5269 11.0677 15.4212 10.8031 15.339 10.5033C15.2557 10.1996 15.2124 9.91747 15.2124 9.72719V7.09603ZM10.5212 17.6625C9.52305 17.7386 8.52062 17.7388 7.52243 17.6631C7.54962 17.6939 7.57772 17.7238 7.60668 17.7528C7.96792 18.114 8.47719 18.341 9.02255 18.341C9.61653 18.341 10.1531 18.0778 10.5212 17.6625Z" fill="#555555"/>
</svg>
