<svg width="25" height="24" viewBox="0 0 25 24" fill="none" xmlns="http://www.w3.org/2000/svg">
<g id="Iconex/Light/Book">
<g id="Book">
<path id="Vector" d="M12.5 4.11751V20.9907M12.5 4.11751L13.6001 3.70467C16.1036 2.76519 18.8964 2.76519 21.3999 3.70467C22.0643 3.95401 22.5 4.55775 22.5 5.22913V19.0798C22.5 20.0017 21.5075 20.6321 20.5951 20.2897C18.6082 19.5441 16.3918 19.5441 14.4049 20.2897L12.5137 20.9994C12.5071 21.0018 12.5 20.9973 12.5 20.9907M12.5 4.11751L11.3999 3.70467C8.89638 2.76519 6.10362 2.76519 3.60014 3.70467C2.93569 3.95401 2.5 4.55775 2.5 5.22913V19.0798C2.5 20.0017 3.49247 20.6321 4.40485 20.2897C6.39175 19.5441 8.60825 19.5441 10.5951 20.2897L12.4863 20.9994C12.4929 21.0018 12.5 20.9973 12.5 20.9907" stroke="#1D1D1D" stroke-width="1.5"/>
</g>
</g>
</svg>
