<svg width="20" height="20" viewBox="0 0 20 20" fill="none" xmlns="http://www.w3.org/2000/svg">
<path id="Union" fill-rule="evenodd" clip-rule="evenodd" d="M1.1013 0.0775146C0.699635 0.0775146 0.374023 0.403126 0.374023 0.804787C0.374023 1.20645 0.699635 1.53206 1.1013 1.53206H2.68546C3.24199 1.53206 3.6823 2.01371 3.63595 2.56471L2.8804 11.6314L2.88032 11.6323C2.71674 13.5431 4.22858 15.1795 6.14512 15.1795H15.8413C17.536 15.1795 18.9957 13.809 19.1247 12.1318L19.125 12.1282L19.6166 5.30017C19.7565 3.36522 18.2733 1.78003 16.3329 1.78003H4.98818C4.68723 0.803712 3.77701 0.0775146 2.68546 0.0775146H1.1013ZM4.32976 11.754L5.03972 3.23457H16.3329C17.4334 3.23457 18.2445 4.10779 18.1658 5.1955L18.141 5.54016H7.47434C7.07268 5.54016 6.74707 5.86577 6.74707 6.26743C6.74707 6.6691 7.07268 6.99471 7.47434 6.99471H18.0363L17.6745 12.0202L17.6744 12.0219C17.6022 12.9479 16.7681 13.725 15.8413 13.725H6.14512C5.07573 13.725 4.23883 12.8127 4.3296 11.7559L4.32976 11.754ZM13.664 17.8755C13.664 17.6486 13.8479 17.4647 14.0748 17.4647C14.3017 17.4647 14.4856 17.6486 14.4856 17.8755C14.4856 18.1023 14.3017 18.2862 14.0748 18.2862C13.8479 18.2862 13.664 18.1023 13.664 17.8755ZM14.0748 16.0101C13.0446 16.0101 12.2095 16.8453 12.2095 17.8755C12.2095 18.9056 13.0446 19.7408 14.0748 19.7408C15.105 19.7408 15.9401 18.9056 15.9401 17.8755C15.9401 16.8453 15.105 16.0101 14.0748 16.0101ZM6.79159 17.4647C6.56472 17.4647 6.38082 17.6486 6.38082 17.8755C6.38082 18.1023 6.56472 18.2862 6.79159 18.2862C7.01845 18.2862 7.20236 18.1023 7.20236 17.8755C7.20236 17.6486 7.01845 17.4647 6.79159 17.4647ZM4.92627 17.8755C4.92627 16.8453 5.7614 16.0101 6.79159 16.0101C7.82178 16.0101 8.65691 16.8453 8.65691 17.8755C8.65691 18.9056 7.82178 19.7408 6.79159 19.7408C5.7614 19.7408 4.92627 18.9056 4.92627 17.8755Z" fill="#555555"/>
</svg>
