<svg width="20" height="20" viewBox="0 0 20 20" fill="none" xmlns="http://www.w3.org/2000/svg">
<path id="Union" fill-rule="evenodd" clip-rule="evenodd" d="M5.90309 7.44078C5.15125 7.44078 4.4325 7.57546 3.77149 7.82593C4.03552 4.34782 7.154 1.52986 11.0653 1.52986C15.1545 1.52986 18.3772 4.61009 18.3772 8.30459C18.3772 10.5026 17.2469 12.4656 15.4732 13.7089C15.2529 13.8632 15.1358 14.1265 15.1688 14.3935L15.5236 17.2684L15.5237 17.269C15.5431 17.4337 15.3745 17.5228 15.2568 17.4515L15.2515 17.4484L11.4368 15.1814C11.3403 15.124 11.2321 15.0899 11.1207 15.0814C11.4521 14.4018 11.6378 13.6447 11.6378 12.8477C11.6378 10.3169 9.8187 8.24478 7.40215 7.62815C6.92279 7.50583 6.41993 7.44078 5.90309 7.44078ZM2.30532 8.63806C2.30066 8.52606 2.29883 8.415 2.29883 8.30459C2.29883 3.7141 6.26863 0.0753174 11.0653 0.0753174C15.8619 0.0753174 19.8317 3.7141 19.8317 8.30459C19.8317 10.8678 18.5863 13.1381 16.6644 14.6364L16.9677 17.0944C17.1298 18.4394 15.6806 19.4056 14.5062 18.6974L10.8621 16.5319C10.6148 16.527 10.37 16.5131 10.1276 16.4902C9.12644 17.5322 7.69203 18.1896 6.10854 18.2421L3.902 19.5525C2.96594 20.1213 1.82601 19.3327 1.94879 18.2891L1.94959 18.2825L2.12423 16.9063C0.930272 15.9274 0.168457 14.4775 0.168457 12.8477C0.168457 11.1317 1.00958 9.61728 2.30532 8.63806ZM6.77983 8.97744C6.49785 8.92368 6.20476 8.89534 5.90314 8.89534C4.98695 8.89534 4.15092 9.15536 3.45965 9.60585L3.45413 9.60941C2.33304 10.3257 1.623 11.5155 1.623 12.8477C1.623 14.1187 2.27198 15.2603 3.31336 15.983C3.53605 16.1376 3.6543 16.4032 3.62018 16.6721L3.43406 18.1387L5.53178 16.8929C5.64416 16.8262 5.77244 16.791 5.90314 16.791C7.29089 16.791 8.51023 16.1854 9.27031 15.2678C9.27421 15.263 9.27817 15.2582 9.2822 15.2535C9.85152 14.5842 10.1832 13.7473 10.1832 12.8477C10.1832 11.2694 9.16628 9.86795 7.66339 9.24199C7.38448 9.12582 7.08883 9.03637 6.77983 8.97744Z" fill="#555555"/>
</svg>
