<svg width="20" height="20" viewBox="0 0 20 20" fill="none" xmlns="http://www.w3.org/2000/svg">
<g id="ico">
<g id="Union">
<mask id="path-1-outside-1_1011_291" maskUnits="userSpaceOnUse" x="0" y="0" width="19" height="19" fill="black">
<rect fill="white" width="19" height="19"/>
<path fill-rule="evenodd" clip-rule="evenodd" d="M9.5 1C9.8611 1 10.1538 1.29273 10.1538 1.65383V4.92299C10.1538 5.2841 9.8611 5.57683 9.5 5.57683C9.1389 5.57683 8.84617 5.2841 8.84617 4.92299V1.65383C8.84617 1.29273 9.1389 1 9.5 1ZM2.48014 4.48071C2.72441 4.21476 3.13802 4.19719 3.40397 4.44146L5.81007 6.65141C6.07602 6.89568 6.0936 7.30929 5.84933 7.57523C5.60506 7.84118 5.19145 7.85876 4.9255 7.61449L2.5194 5.40454C2.25345 5.16027 2.23588 4.74666 2.48014 4.48071ZM5.04647 11.5511C5.38492 11.4252 5.55726 11.0488 5.43138 10.7104C5.30551 10.3719 4.9291 10.1996 4.59065 10.3254L1.4261 11.5023C1.08765 11.6282 0.915314 12.0046 1.04119 12.3431C1.16706 12.6815 1.54347 12.8539 1.88192 12.728L5.04647 11.5511ZM7.82882 14.1446C8.15237 14.305 8.28469 14.6972 8.12435 15.0208L6.67285 17.95C6.51251 18.2735 6.12024 18.4058 5.79669 18.2455C5.47313 18.0852 5.34082 17.6929 5.50115 17.3693L6.95266 14.4402C7.11299 14.1166 7.50526 13.9843 7.82882 14.1446ZM16.4806 5.40454C16.7465 5.16027 16.7641 4.74666 16.5199 4.48071C16.2756 4.21476 15.862 4.19719 15.596 4.44146L13.1899 6.65141C12.924 6.89568 12.9064 7.30929 13.1507 7.57523C13.3949 7.84118 13.8085 7.85876 14.0745 7.61449L16.4806 5.40454ZM13.5686 10.7104C13.6945 10.3719 14.0709 10.1996 14.4094 10.3254L17.5739 11.5023C17.9124 11.6282 18.0847 12.0046 17.9588 12.3431C17.8329 12.6815 17.4565 12.8539 17.1181 12.728L13.9535 11.5511C13.6151 11.4252 13.4427 11.0488 13.5686 10.7104ZM12.0474 14.4402C11.887 14.1166 11.4948 13.9843 11.1712 14.1446C10.8476 14.305 10.7153 14.6972 10.8757 15.0208L12.3272 17.95C12.4875 18.2735 12.8798 18.4058 13.2033 18.2455C13.5269 18.0852 13.6592 17.6929 13.4989 17.3693L12.0474 14.4402Z"/>
</mask>
<path fill-rule="evenodd" clip-rule="evenodd" d="M9.5 1C9.8611 1 10.1538 1.29273 10.1538 1.65383V4.92299C10.1538 5.2841 9.8611 5.57683 9.5 5.57683C9.1389 5.57683 8.84617 5.2841 8.84617 4.92299V1.65383C8.84617 1.29273 9.1389 1 9.5 1ZM2.48014 4.48071C2.72441 4.21476 3.13802 4.19719 3.40397 4.44146L5.81007 6.65141C6.07602 6.89568 6.0936 7.30929 5.84933 7.57523C5.60506 7.84118 5.19145 7.85876 4.9255 7.61449L2.5194 5.40454C2.25345 5.16027 2.23588 4.74666 2.48014 4.48071ZM5.04647 11.5511C5.38492 11.4252 5.55726 11.0488 5.43138 10.7104C5.30551 10.3719 4.9291 10.1996 4.59065 10.3254L1.4261 11.5023C1.08765 11.6282 0.915314 12.0046 1.04119 12.3431C1.16706 12.6815 1.54347 12.8539 1.88192 12.728L5.04647 11.5511ZM7.82882 14.1446C8.15237 14.305 8.28469 14.6972 8.12435 15.0208L6.67285 17.95C6.51251 18.2735 6.12024 18.4058 5.79669 18.2455C5.47313 18.0852 5.34082 17.6929 5.50115 17.3693L6.95266 14.4402C7.11299 14.1166 7.50526 13.9843 7.82882 14.1446ZM16.4806 5.40454C16.7465 5.16027 16.7641 4.74666 16.5199 4.48071C16.2756 4.21476 15.862 4.19719 15.596 4.44146L13.1899 6.65141C12.924 6.89568 12.9064 7.30929 13.1507 7.57523C13.3949 7.84118 13.8085 7.85876 14.0745 7.61449L16.4806 5.40454ZM13.5686 10.7104C13.6945 10.3719 14.0709 10.1996 14.4094 10.3254L17.5739 11.5023C17.9124 11.6282 18.0847 12.0046 17.9588 12.3431C17.8329 12.6815 17.4565 12.8539 17.1181 12.728L13.9535 11.5511C13.6151 11.4252 13.4427 11.0488 13.5686 10.7104ZM12.0474 14.4402C11.887 14.1166 11.4948 13.9843 11.1712 14.1446C10.8476 14.305 10.7153 14.6972 10.8757 15.0208L12.3272 17.95C12.4875 18.2735 12.8798 18.4058 13.2033 18.2455C13.5269 18.0852 13.6592 17.6929 13.4989 17.3693L12.0474 14.4402Z" fill="#000001"/>
<path d="M3.40397 4.44146L3.20103 4.6624L3.20103 4.6624L3.40397 4.44146ZM2.48014 4.48071L2.70109 4.68365L2.70109 4.68365L2.48014 4.48071ZM5.81007 6.65141L5.60714 6.87236L5.60714 6.87236L5.81007 6.65141ZM4.9255 7.61449L5.12844 7.39354L5.12844 7.39354L4.9255 7.61449ZM2.5194 5.40454L2.31647 5.62548L2.31647 5.62548L2.5194 5.40454ZM5.43138 10.7104L5.1502 10.8149L5.1502 10.8149L5.43138 10.7104ZM5.04647 11.5511L4.9419 11.2699L4.9419 11.2699L5.04647 11.5511ZM4.59065 10.3254L4.69522 10.6066L4.69522 10.6066L4.59065 10.3254ZM1.4261 11.5023L1.32153 11.2211L1.32153 11.2211L1.4261 11.5023ZM1.04119 12.3431L0.760001 12.4476L0.760001 12.4476L1.04119 12.3431ZM1.88192 12.728L1.98649 13.0092L1.98649 13.0092L1.88192 12.728ZM8.12435 15.0208L7.85555 14.8876L7.85555 14.8876L8.12435 15.0208ZM7.82882 14.1446L7.96202 13.8758L7.96202 13.8758L7.82882 14.1446ZM6.67285 17.95L6.40404 17.8168L6.40404 17.8168L6.67285 17.95ZM5.79669 18.2455L5.92989 17.9767L5.92989 17.9767L5.79669 18.2455ZM5.50115 17.3693L5.76996 17.5026L5.76996 17.5026L5.50115 17.3693ZM6.95266 14.4402L6.68385 14.307L6.68385 14.307L6.95266 14.4402ZM16.5199 4.48071L16.2989 4.68365L16.2989 4.68365L16.5199 4.48071ZM16.4806 5.40454L16.6835 5.62548L16.6835 5.62548L16.4806 5.40454ZM15.596 4.44146L15.3931 4.22051L15.3931 4.22051L15.596 4.44146ZM13.1899 6.65141L12.987 6.43046L12.987 6.43046L13.1899 6.65141ZM14.0745 7.61449L13.8716 7.39354L13.8716 7.39354L14.0745 7.61449ZM14.4094 10.3254L14.3048 10.6066L14.3048 10.6066L14.4094 10.3254ZM13.5686 10.7104L13.2874 10.6058L13.2874 10.6058L13.5686 10.7104ZM17.5739 11.5023L17.6785 11.2211L17.6785 11.2211L17.5739 11.5023ZM17.9588 12.3431L18.24 12.4476L18.24 12.4476L17.9588 12.3431ZM17.1181 12.728L17.0135 13.0092L17.0135 13.0092L17.1181 12.728ZM13.9535 11.5511L14.0581 11.2699L14.0581 11.2699L13.9535 11.5511ZM11.1712 14.1446L11.3044 14.4134L11.3044 14.4134L11.1712 14.1446ZM12.0474 14.4402L12.3162 14.307L12.3162 14.307L12.0474 14.4402ZM10.8757 15.0208L11.1445 14.8876L11.1445 14.8876L10.8757 15.0208ZM12.3272 17.95L12.596 17.8168L12.596 17.8168L12.3272 17.95ZM13.2033 18.2455L13.0701 17.9767L13.0701 17.9767L13.2033 18.2455ZM13.4989 17.3693L13.2301 17.5026L13.2301 17.5026L13.4989 17.3693ZM10.4538 1.65383C10.4538 1.12704 10.0268 0.7 9.5 0.7V1.3C9.69542 1.3 9.85384 1.45842 9.85384 1.65383H10.4538ZM10.4538 4.92299V1.65383H9.85384V4.92299H10.4538ZM9.5 5.87683C10.0268 5.87683 10.4538 5.44978 10.4538 4.92299H9.85384C9.85384 5.11841 9.69542 5.27683 9.5 5.27683V5.87683ZM8.54617 4.92299C8.54617 5.44978 8.97322 5.87683 9.5 5.87683V5.27683C9.30459 5.27683 9.14617 5.11841 9.14617 4.92299H8.54617ZM8.54617 1.65383V4.92299H9.14617V1.65383H8.54617ZM9.5 0.7C8.97322 0.7 8.54617 1.12704 8.54617 1.65383H9.14617C9.14617 1.45842 9.30459 1.3 9.5 1.3V0.7ZM3.6069 4.22051C3.21893 3.86416 2.61554 3.8898 2.2592 4.27778L2.70109 4.68365C2.83328 4.53972 3.05711 4.53021 3.20103 4.6624L3.6069 4.22051ZM6.01301 6.43046L3.6069 4.22051L3.20103 4.6624L5.60714 6.87236L6.01301 6.43046ZM6.07028 7.77817C6.42662 7.3902 6.40098 6.78681 6.01301 6.43046L5.60714 6.87236C5.75106 7.00455 5.76057 7.22838 5.62838 7.3723L6.07028 7.77817ZM4.72257 7.83544C5.11054 8.19178 5.71393 8.16614 6.07028 7.77817L5.62838 7.3723C5.49619 7.51622 5.27236 7.52573 5.12844 7.39354L4.72257 7.83544ZM2.31647 5.62548L4.72257 7.83544L5.12844 7.39354L2.72234 5.18359L2.31647 5.62548ZM2.2592 4.27778C1.90285 4.66575 1.92849 5.26914 2.31647 5.62548L2.72234 5.18359C2.57841 5.0514 2.5689 4.82757 2.70109 4.68365L2.2592 4.27778ZM5.1502 10.8149C5.21832 10.9981 5.12506 11.2018 4.9419 11.2699L5.15104 11.8323C5.64479 11.6486 5.89619 11.0995 5.71257 10.6058L5.1502 10.8149ZM4.69522 10.6066C4.87838 10.5385 5.08208 10.6318 5.1502 10.8149L5.71257 10.6058C5.52894 10.112 4.97982 9.86063 4.48608 10.0443L4.69522 10.6066ZM1.53067 11.7835L4.69522 10.6066L4.48608 10.0443L1.32153 11.2211L1.53067 11.7835ZM1.32237 12.2385C1.25425 12.0553 1.34751 11.8516 1.53067 11.7835L1.32153 11.2211C0.82778 11.4048 0.576376 11.9539 0.760001 12.4476L1.32237 12.2385ZM1.77735 12.4468C1.59419 12.5149 1.39049 12.4217 1.32237 12.2385L0.760001 12.4476C0.943626 12.9414 1.49275 13.1928 1.98649 13.0092L1.77735 12.4468ZM4.9419 11.2699L1.77735 12.4468L1.98649 13.0092L5.15104 11.8323L4.9419 11.2699ZM8.39316 15.154C8.62706 14.682 8.43403 14.1097 7.96202 13.8758L7.69561 14.4134C7.87071 14.5002 7.94232 14.7125 7.85555 14.8876L8.39316 15.154ZM6.94165 18.0832L8.39316 15.154L7.85555 14.8876L6.40404 17.8168L6.94165 18.0832ZM5.66349 18.5143C6.1355 18.7482 6.70775 18.5552 6.94165 18.0832L6.40404 17.8168C6.31727 17.9919 6.10499 18.0635 5.92989 17.9767L5.66349 18.5143ZM5.23234 17.2361C4.99845 17.7082 5.19147 18.2804 5.66349 18.5143L5.92989 17.9767C5.7548 17.8899 5.68319 17.6776 5.76996 17.5026L5.23234 17.2361ZM6.68385 14.307L5.23234 17.2361L5.76996 17.5026L7.22147 14.5734L6.68385 14.307ZM7.96202 13.8758C7.49001 13.6419 6.91775 13.835 6.68385 14.307L7.22146 14.5734C7.30823 14.3983 7.52051 14.3267 7.69561 14.4134L7.96202 13.8758ZM16.2989 4.68365C16.4311 4.82757 16.4216 5.0514 16.2777 5.18359L16.6835 5.62548C17.0715 5.26914 17.0971 4.66575 16.7408 4.27778L16.2989 4.68365ZM15.799 4.6624C15.9429 4.53021 16.1667 4.53972 16.2989 4.68365L16.7408 4.27778C16.3845 3.8898 15.7811 3.86416 15.3931 4.22051L15.799 4.6624ZM13.3929 6.87236L15.799 4.6624L15.3931 4.22051L12.987 6.43046L13.3929 6.87236ZM13.3716 7.3723C13.2394 7.22838 13.2489 7.00454 13.3929 6.87236L12.987 6.43046C12.599 6.78681 12.5734 7.3902 12.9297 7.77817L13.3716 7.3723ZM13.8716 7.39354C13.7276 7.52573 13.5038 7.51622 13.3716 7.3723L12.9297 7.77817C13.2861 8.16614 13.8895 8.19178 14.2774 7.83544L13.8716 7.39354ZM16.2777 5.18359L13.8716 7.39354L14.2774 7.83544L16.6835 5.62548L16.2777 5.18359ZM14.5139 10.0443C14.0202 9.86063 13.4711 10.112 13.2874 10.6058L13.8498 10.8149C13.9179 10.6318 14.1216 10.5385 14.3048 10.6066L14.5139 10.0443ZM17.6785 11.2211L14.5139 10.0443L14.3048 10.6066L17.4693 11.7835L17.6785 11.2211ZM18.24 12.4476C18.4236 11.9539 18.1722 11.4048 17.6785 11.2211L17.4693 11.7835C17.6525 11.8516 17.7458 12.0553 17.6776 12.2385L18.24 12.4476ZM17.0135 13.0092C17.5073 13.1928 18.0564 12.9414 18.24 12.4476L17.6776 12.2385C17.6095 12.4217 17.4058 12.5149 17.2227 12.4468L17.0135 13.0092ZM13.849 11.8323L17.0135 13.0092L17.2227 12.4468L14.0581 11.2699L13.849 11.8323ZM13.2874 10.6058C13.1038 11.0995 13.3552 11.6486 13.849 11.8323L14.0581 11.2699C13.8749 11.2018 13.7817 10.9981 13.8498 10.8149L13.2874 10.6058ZM11.3044 14.4134C11.4795 14.3267 11.6918 14.3983 11.7786 14.5734L12.3162 14.307C12.0823 13.835 11.51 13.6419 11.038 13.8758L11.3044 14.4134ZM11.1445 14.8876C11.0577 14.7125 11.1293 14.5002 11.3044 14.4134L11.038 13.8758C10.566 14.1097 10.373 14.682 10.6069 15.154L11.1445 14.8876ZM12.596 17.8168L11.1445 14.8876L10.6069 15.154L12.0584 18.0832L12.596 17.8168ZM13.0701 17.9767C12.895 18.0635 12.6827 17.9919 12.596 17.8168L12.0584 18.0832C12.2923 18.5552 12.8645 18.7482 13.3365 18.5143L13.0701 17.9767ZM13.2301 17.5026C13.3168 17.6776 13.2452 17.8899 13.0701 17.9767L13.3365 18.5143C13.8085 18.2804 14.0016 17.7082 13.7677 17.2361L13.2301 17.5026ZM11.7786 14.5734L13.2301 17.5026L13.7677 17.2361L12.3162 14.307L11.7786 14.5734Z" fill="black" mask="url(#path-1-outside-1_1011_291)"/>
</g>
</g>
</svg>
