<svg width="20" height="20" viewBox="0 0 20 20" fill="none" xmlns="http://www.w3.org/2000/svg">
<g id="ico">
<g id="Union">
<mask id="path-1-outside-1_1011_281" maskUnits="userSpaceOnUse" x="0" y="4" width="20" height="12" fill="black">
<rect fill="white" y="4" width="20" height="12"/>
<path fill-rule="evenodd" clip-rule="evenodd" d="M2.28571 6.92857C2.28571 6.57353 2.57353 6.28571 2.92857 6.28571H17.0714C17.4265 6.28571 17.7143 6.57353 17.7143 6.92857V13.3571C17.7143 13.7122 17.4265 14 17.0714 14H2.92857C2.57353 14 2.28571 13.7122 2.28571 13.3571V6.92857ZM2.92857 5C1.86345 5 1 5.86345 1 6.92857V13.3571C1 14.4223 1.86345 15.2857 2.92857 15.2857H17.0714C18.1365 15.2857 19 14.4223 19 13.3571V6.92857C19 5.86345 18.1365 5 17.0714 5H2.92857ZM5.5 8.85714C4.78992 8.85714 4.21429 9.43278 4.21429 10.1429C4.21429 10.8529 4.78992 11.4286 5.5 11.4286C6.21008 11.4286 6.78571 10.8529 6.78571 10.1429C6.78571 9.43278 6.21008 8.85714 5.5 8.85714ZM8.07143 10.1429C8.07143 9.43278 8.64706 8.85714 9.35714 8.85714C10.0672 8.85714 10.6429 9.43278 10.6429 10.1429C10.6429 10.8529 10.0672 11.4286 9.35714 11.4286C8.64706 11.4286 8.07143 10.8529 8.07143 10.1429ZM13.2143 10.7857C12.8592 10.7857 12.5714 11.0735 12.5714 11.4286C12.5714 11.7836 12.8592 12.0714 13.2143 12.0714H15.1429C15.4979 12.0714 15.7857 11.7836 15.7857 11.4286C15.7857 11.0735 15.4979 10.7857 15.1429 10.7857H13.2143Z"/>
</mask>
<path fill-rule="evenodd" clip-rule="evenodd" d="M2.28571 6.92857C2.28571 6.57353 2.57353 6.28571 2.92857 6.28571H17.0714C17.4265 6.28571 17.7143 6.57353 17.7143 6.92857V13.3571C17.7143 13.7122 17.4265 14 17.0714 14H2.92857C2.57353 14 2.28571 13.7122 2.28571 13.3571V6.92857ZM2.92857 5C1.86345 5 1 5.86345 1 6.92857V13.3571C1 14.4223 1.86345 15.2857 2.92857 15.2857H17.0714C18.1365 15.2857 19 14.4223 19 13.3571V6.92857C19 5.86345 18.1365 5 17.0714 5H2.92857ZM5.5 8.85714C4.78992 8.85714 4.21429 9.43278 4.21429 10.1429C4.21429 10.8529 4.78992 11.4286 5.5 11.4286C6.21008 11.4286 6.78571 10.8529 6.78571 10.1429C6.78571 9.43278 6.21008 8.85714 5.5 8.85714ZM8.07143 10.1429C8.07143 9.43278 8.64706 8.85714 9.35714 8.85714C10.0672 8.85714 10.6429 9.43278 10.6429 10.1429C10.6429 10.8529 10.0672 11.4286 9.35714 11.4286C8.64706 11.4286 8.07143 10.8529 8.07143 10.1429ZM13.2143 10.7857C12.8592 10.7857 12.5714 11.0735 12.5714 11.4286C12.5714 11.7836 12.8592 12.0714 13.2143 12.0714H15.1429C15.4979 12.0714 15.7857 11.7836 15.7857 11.4286C15.7857 11.0735 15.4979 10.7857 15.1429 10.7857H13.2143Z" fill="#000001"/>
<path d="M2.92857 6.08571C2.46307 6.08571 2.08571 6.46307 2.08571 6.92857H2.48571C2.48571 6.68399 2.68399 6.48571 2.92857 6.48571V6.08571ZM17.0714 6.08571H2.92857V6.48571H17.0714V6.08571ZM17.9143 6.92857C17.9143 6.46307 17.5369 6.08571 17.0714 6.08571V6.48571C17.316 6.48571 17.5143 6.68399 17.5143 6.92857H17.9143ZM17.9143 13.3571V6.92857H17.5143V13.3571H17.9143ZM17.0714 14.2C17.5369 14.2 17.9143 13.8226 17.9143 13.3571H17.5143C17.5143 13.6017 17.316 13.8 17.0714 13.8V14.2ZM2.92857 14.2H17.0714V13.8H2.92857V14.2ZM2.08571 13.3571C2.08571 13.8226 2.46307 14.2 2.92857 14.2V13.8C2.68399 13.8 2.48571 13.6017 2.48571 13.3571H2.08571ZM2.08571 6.92857V13.3571H2.48571V6.92857H2.08571ZM1.2 6.92857C1.2 5.97391 1.97391 5.2 2.92857 5.2V4.8C1.75299 4.8 0.8 5.75299 0.8 6.92857H1.2ZM1.2 13.3571V6.92857H0.8V13.3571H1.2ZM2.92857 15.0857C1.97391 15.0857 1.2 14.3118 1.2 13.3571H0.8C0.8 14.5327 1.75299 15.4857 2.92857 15.4857V15.0857ZM17.0714 15.0857H2.92857V15.4857H17.0714V15.0857ZM18.8 13.3571C18.8 14.3118 18.0261 15.0857 17.0714 15.0857V15.4857C18.247 15.4857 19.2 14.5327 19.2 13.3571H18.8ZM18.8 6.92857V13.3571H19.2V6.92857H18.8ZM17.0714 5.2C18.0261 5.2 18.8 5.97391 18.8 6.92857H19.2C19.2 5.75299 18.247 4.8 17.0714 4.8V5.2ZM2.92857 5.2H17.0714V4.8H2.92857V5.2ZM4.41429 10.1429C4.41429 9.54323 4.90038 9.05714 5.5 9.05714V8.65714C4.67946 8.65714 4.01429 9.32232 4.01429 10.1429H4.41429ZM5.5 11.2286C4.90038 11.2286 4.41429 10.7425 4.41429 10.1429H4.01429C4.01429 10.9634 4.67946 11.6286 5.5 11.6286V11.2286ZM6.58571 10.1429C6.58571 10.7425 6.09962 11.2286 5.5 11.2286V11.6286C6.32054 11.6286 6.98571 10.9634 6.98571 10.1429H6.58571ZM5.5 9.05714C6.09962 9.05714 6.58571 9.54323 6.58571 10.1429H6.98571C6.98571 9.32232 6.32054 8.65714 5.5 8.65714V9.05714ZM9.35714 8.65714C8.53661 8.65714 7.87143 9.32232 7.87143 10.1429H8.27143C8.27143 9.54323 8.75752 9.05714 9.35714 9.05714V8.65714ZM10.8429 10.1429C10.8429 9.32232 10.1777 8.65714 9.35714 8.65714V9.05714C9.95677 9.05714 10.4429 9.54323 10.4429 10.1429H10.8429ZM9.35714 11.6286C10.1777 11.6286 10.8429 10.9634 10.8429 10.1429H10.4429C10.4429 10.7425 9.95677 11.2286 9.35714 11.2286V11.6286ZM7.87143 10.1429C7.87143 10.9634 8.53661 11.6286 9.35714 11.6286V11.2286C8.75752 11.2286 8.27143 10.7425 8.27143 10.1429H7.87143ZM12.7714 11.4286C12.7714 11.184 12.9697 10.9857 13.2143 10.9857V10.5857C12.7488 10.5857 12.3714 10.9631 12.3714 11.4286H12.7714ZM13.2143 11.8714C12.9697 11.8714 12.7714 11.6732 12.7714 11.4286H12.3714C12.3714 11.8941 12.7488 12.2714 13.2143 12.2714V11.8714ZM15.1429 11.8714H13.2143V12.2714H15.1429V11.8714ZM15.5857 11.4286C15.5857 11.6732 15.3874 11.8714 15.1429 11.8714V12.2714C15.6084 12.2714 15.9857 11.8941 15.9857 11.4286H15.5857ZM15.1429 10.9857C15.3874 10.9857 15.5857 11.184 15.5857 11.4286H15.9857C15.9857 10.9631 15.6084 10.5857 15.1429 10.5857V10.9857ZM13.2143 10.9857H15.1429V10.5857H13.2143V10.9857Z" fill="black" mask="url(#path-1-outside-1_1011_281)"/>
</g>
</g>
</svg>
