<svg width="20" height="20" viewBox="0 0 20 20" fill="none" xmlns="http://www.w3.org/2000/svg">
<g id="ico">
<path id="Union" d="M3.08788 3.62756C3.08788 3.3295 3.32951 3.08788 3.62756 3.08788H16.3724C16.6705 3.08788 16.9121 3.3295 16.9121 3.62756V5.32587H7.10343H3.08788V3.62756ZM3.08788 6.56375H6.48449V16.9121H3.62756C3.3295 16.9121 3.08788 16.6705 3.08788 16.3724V6.56375ZM16.3724 16.9121H7.72237V6.56375H16.9121V16.3724C16.9121 16.6705 16.6705 16.9121 16.3724 16.9121ZM3.62756 18.15H7.10343H16.3724C17.3542 18.15 18.15 17.3542 18.15 16.3724V5.94481V3.62756C18.15 2.64584 17.3542 1.85 16.3724 1.85H3.62756C2.64584 1.85 1.85 2.64584 1.85 3.62756V5.94481V16.3724C1.85 17.3542 2.64584 18.15 3.62756 18.15Z" fill="#000001" stroke="black" stroke-width="0.3" stroke-linecap="round" stroke-linejoin="round"/>
</g>
</svg>
