<svg width="18" height="18" viewBox="0 0 18 18" fill="none" xmlns="http://www.w3.org/2000/svg">
<g id="Group 1">
<path id="Vector" d="M13.3077 1H4.69231C2.6531 1 1 2.6531 1 4.69231V13.3077C1 15.3469 2.6531 17 4.69231 17H13.3077C15.3469 17 17 15.3469 17 13.3077V4.69231C17 2.6531 15.3469 1 13.3077 1Z" stroke="#000001" stroke-width="1.5" stroke-linecap="round" stroke-linejoin="round"/>
<path id="Vector_2" d="M5.30769 10.2308L7.83077 12.2492C7.89853 12.305 7.97788 12.345 8.06304 12.3663C8.1482 12.3876 8.23703 12.3896 8.32308 12.3723C8.40995 12.356 8.49229 12.3212 8.5645 12.2702C8.63671 12.2192 8.69709 12.1533 8.74154 12.0769L12.6923 5.30768" stroke="#000001" stroke-width="1.5" stroke-linecap="round" stroke-linejoin="round"/>
</g>
</svg>
