<svg width="24" height="24" viewBox="0 0 24 24" fill="none" xmlns="http://www.w3.org/2000/svg">
<g id="Iconex/Light/Message circle">
<g id="Message circle">
<path id="Union" d="M2.23903 20.0292L1.29617 19.6961L1.29617 19.6961L2.23903 20.0292ZM3.77028 21.5605L4.10345 22.5033L4.10345 22.5033L3.77028 21.5605ZM7.15818 20.7518L6.6733 21.6263L7.15818 20.7518ZM3.10105 16.5662L3.99038 16.109L3.10105 16.5662ZM3.16731 17.4022L4.11018 17.7354L3.16731 17.4022ZM3.00001 12C3.00001 7.02944 7.02945 3 12 3V1C5.92488 1 1.00001 5.92487 1.00001 12H3.00001ZM3.99038 16.109C3.35761 14.8783 3.00001 13.4824 3.00001 12H1.00001C1.00001 13.8078 1.43689 15.5165 2.21171 17.0235L3.99038 16.109ZM3.1819 20.3624L4.11018 17.7354L2.22445 17.069L1.29617 19.6961L3.1819 20.3624ZM3.43711 20.6176C3.27859 20.6736 3.12589 20.5209 3.1819 20.3624L1.29617 19.6961C0.68 21.4398 2.3597 23.1195 4.10345 22.5033L3.43711 20.6176ZM5.9597 19.7262L3.43711 20.6176L4.10345 22.5033L6.62604 21.612L5.9597 19.7262ZM12 21C10.4174 21 8.93306 20.5924 7.64307 19.8772L6.6733 21.6263C8.25244 22.5019 10.0696 23 12 23V21ZM21 12C21 16.9706 16.9706 21 12 21V23C18.0751 23 23 18.0751 23 12H21ZM12 3C16.9706 3 21 7.02944 21 12H23C23 5.92487 18.0751 1 12 1V3ZM6.62604 21.612C6.62314 21.613 6.62453 21.6116 6.63262 21.6124C6.64148 21.6133 6.65606 21.6168 6.6733 21.6263L7.64307 19.8772C7.15059 19.6041 6.53901 19.5215 5.9597 19.7262L6.62604 21.612ZM2.21171 17.0235C2.22037 17.0403 2.2234 17.0543 2.22411 17.0628C2.22477 17.0705 2.22345 17.0719 2.22445 17.069L4.11018 17.7354C4.30699 17.1784 4.2381 16.5908 3.99038 16.109L2.21171 17.0235Z" fill="#C3C4C8"/>
<g id="Dots">
<circle id="Ellipse 37" cx="7.05" cy="12.0498" r="1.25" fill="#C3C4C8"/>
<circle id="Ellipse 38" cx="12.05" cy="12.0498" r="1.25" fill="#C3C4C8"/>
<circle id="Ellipse 39" cx="17.05" cy="12.0498" r="1.25" fill="#C3C4C8"/>
</g>
</g>
</g>
</svg>
