<svg width="20" height="20" viewBox="0 0 20 20" fill="none" xmlns="http://www.w3.org/2000/svg">
<g id="ico" clip-path="url(#clip0_670_288)">
<path id="Vector (Stroke)" fill-rule="evenodd" clip-rule="evenodd" d="M14.7788 2.28563C14.6932 2.28563 14.6084 2.30274 14.5295 2.33595C14.4506 2.36917 14.3791 2.41782 14.3192 2.47904L14.3131 2.48532L3.83938 12.9081L2.57324 17.43L7.09517 16.1639L17.518 5.69022L17.521 5.68726C17.5812 5.6275 17.629 5.5564 17.6617 5.47807C17.6943 5.39974 17.7111 5.31572 17.7111 5.23086C17.7111 5.146 17.6943 5.06198 17.6617 4.98365C17.629 4.90531 17.5812 4.83422 17.521 4.77446L17.5178 4.77133L15.2384 2.47906C15.1786 2.41783 15.1071 2.36917 15.0282 2.33595C14.9492 2.30274 14.8645 2.28563 14.7788 2.28563ZM14.0309 1.15096C14.2676 1.05133 14.5219 1 14.7788 1C15.0357 1 15.29 1.05133 15.5268 1.15096C15.7627 1.25023 15.9765 1.39545 16.1556 1.57815L18.4263 3.86166C18.4269 3.86223 18.4275 3.86281 18.428 3.86338C18.608 4.0423 18.7508 4.25497 18.8484 4.48922C18.9463 4.72422 18.9967 4.97628 18.9967 5.23086C18.9967 5.48544 18.9463 5.7375 18.8484 5.97249C18.7508 6.20673 18.608 6.4194 18.4281 6.59832C18.4275 6.5989 18.4269 6.59948 18.4263 6.60006L7.88709 17.1907C7.80884 17.2693 7.71158 17.3264 7.60477 17.3563L1.81942 18.9762C1.59579 19.0388 1.35577 18.9759 1.19156 18.8117C1.02734 18.6475 0.964471 18.4075 1.02709 18.1838L2.64699 12.3985C2.67689 12.2917 2.73394 12.1944 2.81256 12.1162L13.4033 1.5768C13.5823 1.39473 13.7956 1.24998 14.0309 1.15096Z" fill="#000001"/>
<path id="Vector (Stroke) (Stroke)" fill-rule="evenodd" clip-rule="evenodd" d="M13.9727 1.01271C14.2279 0.905322 14.502 0.850006 14.7788 0.850006C15.0557 0.850006 15.3298 0.905322 15.5849 1.01271C15.839 1.11961 16.0692 1.27598 16.2623 1.4727C16.2624 1.47284 16.2622 1.47257 16.2623 1.4727L18.5319 3.75517L18.5326 3.75588L18.5337 3.75695C18.7276 3.94978 18.8816 4.17905 18.9868 4.43152C19.0924 4.6848 19.1467 4.95648 19.1467 5.23086C19.1467 5.50525 19.0924 5.77692 18.9868 6.0302C18.8817 6.28266 18.7277 6.51186 18.5338 6.70469M18.5338 6.70469L18.5326 6.70589L18.5318 6.70662L7.99335 17.2965C7.89685 17.3935 7.77691 17.4639 7.64518 17.5007L1.85983 19.1206C1.58406 19.1978 1.28807 19.1203 1.08555 18.9178C0.883018 18.7153 0.805462 18.4192 0.882697 18.1434L2.50259 12.358C2.53948 12.2263 2.60984 12.1063 2.70681 12.0098L13.2964 1.47165C13.2966 1.47145 13.2962 1.47186 13.2964 1.47165C13.4891 1.27571 13.7194 1.11931 13.9727 1.01271M14.7788 1.15001C14.5419 1.15001 14.3074 1.19734 14.089 1.28924C13.872 1.38056 13.6753 1.51405 13.5103 1.68196L13.5091 1.68316L2.91831 12.2225C2.85803 12.2825 2.8143 12.3571 2.79137 12.439L1.17147 18.2243C1.12347 18.3957 1.17166 18.5797 1.29756 18.7056C1.42347 18.8315 1.60751 18.8798 1.779 18.8317L7.56435 17.2118C7.64626 17.1889 7.72083 17.1452 7.78082 17.0849L18.32 6.49424L18.3208 6.4935L18.3223 6.49196C18.4883 6.32696 18.62 6.13081 18.71 5.9148C18.8003 5.69808 18.8468 5.46563 18.8468 5.23086C18.8468 4.99609 18.8003 4.76365 18.71 4.54693C18.62 4.33093 18.4883 4.13482 18.3224 3.96982C18.3224 3.96981 18.3224 3.96984 18.3224 3.96982M18.3224 3.96982L18.3207 3.96816L18.32 3.96745L16.0493 1.68394L16.0486 1.6832C15.8834 1.51471 15.6862 1.38078 15.4687 1.28924C15.2503 1.19734 15.0158 1.15001 14.7788 1.15001M14.7788 2.43564C14.7132 2.43564 14.6482 2.44876 14.5876 2.47423C14.5271 2.49969 14.4723 2.53699 14.4264 2.58393L14.4188 2.59168L3.97311 12.9866L2.78952 17.2137L7.01674 16.0301L17.4117 5.5844L17.4151 5.58107C17.4613 5.53525 17.4982 5.48042 17.5233 5.42037C17.5483 5.36032 17.5612 5.29591 17.5612 5.23086C17.5612 5.16581 17.5483 5.10141 17.5233 5.04135C17.4982 4.9813 17.4616 4.9268 17.4154 4.88099L17.4122 4.87786L17.4115 4.87712L15.1321 2.58485L15.1312 2.58395C15.0853 2.53699 15.0305 2.49968 14.97 2.47423C14.9095 2.44876 14.8445 2.43564 14.7788 2.43564ZM14.4714 2.1977C14.5687 2.15674 14.6732 2.13564 14.7788 2.13564C14.8844 2.13564 14.989 2.15674 15.0863 2.1977C15.1835 2.23858 15.2714 2.29844 15.3452 2.37371C15.3453 2.37387 15.345 2.37356 15.3452 2.37371L17.6234 4.66481L17.6241 4.66555L17.6265 4.66794C17.7008 4.74164 17.7598 4.82933 17.8001 4.92595C17.8403 5.02256 17.861 5.1262 17.861 5.23086C17.861 5.33553 17.8403 5.43916 17.8001 5.53578C17.7598 5.63235 17.7009 5.72001 17.6266 5.79369C17.6266 5.79372 17.6267 5.79366 17.6266 5.79369L17.6243 5.79606L7.20143 16.2697C7.18318 16.2881 7.16049 16.3014 7.13558 16.3083L2.61365 17.5745C2.56148 17.5891 2.5055 17.5744 2.46719 17.5361C2.42889 17.4978 2.41423 17.4418 2.42884 17.3896L3.69499 12.8676C3.70197 12.8427 3.71528 12.82 3.73362 12.8018L14.2059 2.38043L14.2073 2.37898L14.212 2.37416C14.2859 2.29865 14.374 2.23865 14.4714 2.1977Z" fill="black"/>
</g>
<defs>
<clipPath id="clip0_670_288">
<rect width="20" height="20" fill="white"/>
</clipPath>
</defs>
</svg>
