<svg width="20" height="20" viewBox="0 0 20 20" fill="none" xmlns="http://www.w3.org/2000/svg">
<g id="ico" clip-path="url(#clip0_670_295)">
<g id="Union">
<mask id="path-1-outside-1_670_295" maskUnits="userSpaceOnUse" x="-7.62939e-06" y="0" width="20" height="20" fill="black">
<rect fill="white" x="-7.62939e-06" width="20" height="20"/>
<path fill-rule="evenodd" clip-rule="evenodd" d="M9.94016 1C9.79513 1 9.65161 1.0291 9.51809 1.08552L1.75748 4.07353C1.58198 4.12533 1.42183 4.21977 1.29144 4.34861C1.2795 4.3604 1.26817 4.37279 1.25748 4.38572C1.09402 4.58348 1.00318 4.83123 1.00007 5.08778L1.00003 5.08778V5.09384V14.5993H0.999992L1.00008 14.6058C1.00306 14.8353 1.07471 15.0587 1.2058 15.2471C1.33688 15.4356 1.52141 15.5805 1.73558 15.6631L1.73589 15.6632L9.52678 18.6629C9.56579 18.6779 9.60645 18.6879 9.64781 18.6928C9.73003 18.7522 9.83102 18.7872 9.94018 18.7872C10.0493 18.7872 10.1503 18.7522 10.2326 18.6928C10.2739 18.6879 10.3145 18.6779 10.3535 18.6629L18.1444 15.6632L18.1447 15.6631C18.3589 15.5805 18.5434 15.4356 18.6745 15.2471C18.8056 15.0587 18.8773 14.8353 18.8802 14.6058H18.8803V14.5993V5.16042C18.8944 4.8836 18.8057 4.61122 18.6311 4.3958C18.5061 4.23079 18.3374 4.10393 18.1439 4.02969L18.1417 4.02886L10.3607 1.08487C10.2276 1.02887 10.0846 1 9.94016 1ZM9.44018 8.29393V17.558L2.09552 14.7301L2.09547 14.7301C2.06768 14.7194 2.04373 14.7006 2.02672 14.6761C2.01009 14.6522 2.00082 14.624 2.00003 14.5949V5.42948L9.44018 8.29393ZM10.4402 8.29396V17.558L17.7848 14.7301L17.7851 14.73C17.8128 14.7193 17.8366 14.7005 17.8536 14.6761C17.8702 14.6522 17.8795 14.624 17.8803 14.5949V5.42952L10.4402 8.29396ZM17.0404 4.68134L9.99695 2.01643C9.98918 2.01349 9.98149 2.01036 9.97388 2.00704C9.96324 2.0024 9.95176 2 9.94016 2C9.92856 2 9.91708 2.0024 9.90644 2.00704C9.89972 2.00997 9.89294 2.01276 9.88609 2.01539L2.90101 4.70481L9.94021 7.41489L17.0404 4.68134Z"/>
</mask>
<path fill-rule="evenodd" clip-rule="evenodd" d="M9.94016 1C9.79513 1 9.65161 1.0291 9.51809 1.08552L1.75748 4.07353C1.58198 4.12533 1.42183 4.21977 1.29144 4.34861C1.2795 4.3604 1.26817 4.37279 1.25748 4.38572C1.09402 4.58348 1.00318 4.83123 1.00007 5.08778L1.00003 5.08778V5.09384V14.5993H0.999992L1.00008 14.6058C1.00306 14.8353 1.07471 15.0587 1.2058 15.2471C1.33688 15.4356 1.52141 15.5805 1.73558 15.6631L1.73589 15.6632L9.52678 18.6629C9.56579 18.6779 9.60645 18.6879 9.64781 18.6928C9.73003 18.7522 9.83102 18.7872 9.94018 18.7872C10.0493 18.7872 10.1503 18.7522 10.2326 18.6928C10.2739 18.6879 10.3145 18.6779 10.3535 18.6629L18.1444 15.6632L18.1447 15.6631C18.3589 15.5805 18.5434 15.4356 18.6745 15.2471C18.8056 15.0587 18.8773 14.8353 18.8802 14.6058H18.8803V14.5993V5.16042C18.8944 4.8836 18.8057 4.61122 18.6311 4.3958C18.5061 4.23079 18.3374 4.10393 18.1439 4.02969L18.1417 4.02886L10.3607 1.08487C10.2276 1.02887 10.0846 1 9.94016 1ZM9.44018 8.29393V17.558L2.09552 14.7301L2.09547 14.7301C2.06768 14.7194 2.04373 14.7006 2.02672 14.6761C2.01009 14.6522 2.00082 14.624 2.00003 14.5949V5.42948L9.44018 8.29393ZM10.4402 8.29396V17.558L17.7848 14.7301L17.7851 14.73C17.8128 14.7193 17.8366 14.7005 17.8536 14.6761C17.8702 14.6522 17.8795 14.624 17.8803 14.5949V5.42952L10.4402 8.29396ZM17.0404 4.68134L9.99695 2.01643C9.98918 2.01349 9.98149 2.01036 9.97388 2.00704C9.96324 2.0024 9.95176 2 9.94016 2C9.92856 2 9.91708 2.0024 9.90644 2.00704C9.89972 2.00997 9.89294 2.01276 9.88609 2.01539L2.90101 4.70481L9.94021 7.41489L17.0404 4.68134Z" fill="#000001"/>
<path d="M9.51809 1.08552L9.62594 1.36563L9.63487 1.36186L9.51809 1.08552ZM1.75748 4.07353L1.84241 4.36126C1.85013 4.35898 1.85776 4.35639 1.86527 4.35349L1.75748 4.07353ZM1.29144 4.34861L1.08058 4.13521L1.08058 4.13521L1.29144 4.34861ZM1.25748 4.38572L1.02625 4.19459L1.02625 4.19459L1.25748 4.38572ZM1.00007 5.08778L0.996179 5.38775C1.07578 5.38879 1.15253 5.35814 1.20952 5.30256C1.26652 5.24698 1.29908 5.17102 1.30005 5.09142L1.00007 5.08778ZM1.00003 5.08778L1.00393 4.7878C0.923694 4.78676 0.846388 4.81791 0.789283 4.87428C0.732178 4.93064 0.700034 5.00754 0.700034 5.08778H1.00003ZM1.00003 14.5993V14.8993C1.16572 14.8993 1.30003 14.765 1.30003 14.5993H1.00003ZM0.999992 14.5993V14.2993C0.919752 14.2993 0.842857 14.3314 0.786488 14.3885C0.730119 14.4456 0.698976 14.5229 0.700018 14.6032L0.999992 14.5993ZM1.00008 14.6058L0.700102 14.6097H0.700102L1.00008 14.6058ZM1.2058 15.2471L0.959519 15.4185H0.959519L1.2058 15.2471ZM1.73558 15.6631L1.6276 15.943L1.62777 15.9431L1.73558 15.6631ZM1.73589 15.6632L1.62808 15.9432L1.6281 15.9432L1.73589 15.6632ZM9.52678 18.6629L9.41899 18.9429H9.41899L9.52678 18.6629ZM9.64781 18.6928L9.82342 18.4496C9.78202 18.4197 9.73369 18.4009 9.68298 18.3949L9.64781 18.6928ZM10.2326 18.6928L10.1974 18.3949C10.1467 18.4009 10.0983 18.4197 10.0569 18.4496L10.2326 18.6928ZM10.3535 18.6629L10.2458 18.3829L10.2457 18.3829L10.3535 18.6629ZM18.1444 15.6632L18.0368 15.3832L18.0366 15.3833L18.1444 15.6632ZM18.1447 15.6631L18.2523 15.9431L18.2527 15.943L18.1447 15.6631ZM18.6745 15.2471L18.4283 15.0758V15.0758L18.6745 15.2471ZM18.8802 14.6058V14.3058C18.7161 14.3058 18.5824 14.4377 18.5803 14.6019L18.8802 14.6058ZM18.8803 14.6058V14.9058C19.046 14.9058 19.1803 14.7715 19.1803 14.6058H18.8803ZM18.8803 5.16042L18.5807 5.14511C18.5804 5.15021 18.5803 5.15531 18.5803 5.16042H18.8803ZM18.6311 4.3958L18.3919 4.57706L18.3981 4.5847L18.6311 4.3958ZM18.1439 4.02969L18.2514 3.7496L18.25 3.74909L18.1439 4.02969ZM18.1417 4.02886L18.0356 4.30945L18.0356 4.30946L18.1417 4.02886ZM10.3607 1.08487L10.2443 1.36157L10.2545 1.36546L10.3607 1.08487ZM9.44018 17.558L9.33239 17.8379C9.42464 17.8735 9.52847 17.8613 9.60997 17.8053C9.69147 17.7493 9.74018 17.6568 9.74018 17.558H9.44018ZM9.44018 8.29393H9.74018C9.74018 8.16983 9.66377 8.05855 9.54797 8.01396L9.44018 8.29393ZM2.09552 14.7301L1.98622 15.0095L1.98772 15.0101L2.09552 14.7301ZM2.09547 14.7301L2.20476 14.4507L2.20354 14.4502L2.09547 14.7301ZM2.02672 14.6761L2.27299 14.5048L2.27299 14.5048L2.02672 14.6761ZM2.00003 14.5949H1.69992L1.70014 14.603L2.00003 14.5949ZM2.00003 5.42948L2.10782 5.14952C2.01557 5.114 1.91173 5.12621 1.83023 5.18216C1.74874 5.23812 1.70003 5.33063 1.70003 5.42948H2.00003ZM10.4402 8.29396L10.3324 8.01399C10.2166 8.05858 10.1402 8.16986 10.1402 8.29396H10.4402ZM10.4402 17.558H10.1402C10.1402 17.6568 10.1889 17.7493 10.2704 17.8053C10.3519 17.8612 10.4557 17.8735 10.548 17.8379L10.4402 17.558ZM17.7848 14.7301L17.8926 15.0101L17.8933 15.0098L17.7848 14.7301ZM17.7851 14.73L17.6766 14.4503L17.6765 14.4503L17.7851 14.73ZM17.8536 14.6761L18.0999 14.8474L18.0999 14.8474L17.8536 14.6761ZM17.8803 14.5949L18.1803 14.603V14.5949H17.8803ZM17.8803 5.42952H18.1803C18.1803 5.33067 18.1316 5.23816 18.0501 5.1822C17.9686 5.12625 17.8648 5.11404 17.7725 5.14956L17.8803 5.42952ZM17.0404 4.68134L17.1482 4.96131C17.2643 4.91661 17.3407 4.80488 17.3404 4.68047C17.34 4.55606 17.2629 4.44478 17.1465 4.40075L17.0404 4.68134ZM9.99695 2.01643L9.89079 2.29702L9.89079 2.29702L9.99695 2.01643ZM9.97388 2.00704L9.85387 2.28199L9.85387 2.28199L9.97388 2.00704ZM9.90644 2.00704L9.78645 1.73208L9.78643 1.73209L9.90644 2.00704ZM9.88609 2.01539L9.7783 1.73543L9.7783 1.73543L9.88609 2.01539ZM2.90101 4.70481L2.79322 4.42484C2.67741 4.46943 2.60101 4.58071 2.60101 4.70481C2.60101 4.8289 2.67741 4.94019 2.79322 4.98477L2.90101 4.70481ZM9.94021 7.41489L9.83243 7.69486C9.9018 7.72157 9.97863 7.72157 10.048 7.69486L9.94021 7.41489ZM9.63487 1.36186C9.73144 1.32105 9.83525 1.3 9.94016 1.3V0.7C9.755 0.7 9.57177 0.737148 9.40131 0.809183L9.63487 1.36186ZM1.86527 4.35349L9.62588 1.36549L9.4103 0.805555L1.64969 3.79356L1.86527 4.35349ZM1.5023 4.56201C1.59746 4.46798 1.71433 4.39906 1.84241 4.36126L1.67255 3.7858C1.44962 3.8516 1.24621 3.97156 1.08058 4.13521L1.5023 4.56201ZM1.48871 4.57686C1.49299 4.57168 1.49752 4.56673 1.5023 4.56201L1.08058 4.13521C1.06148 4.15408 1.04335 4.1739 1.02625 4.19459L1.48871 4.57686ZM1.30005 5.09142C1.30233 4.90338 1.36891 4.7218 1.48871 4.57685L1.02625 4.19459C0.81913 4.44516 0.704035 4.75908 0.700093 5.08414L1.30005 5.09142ZM0.996142 5.38775L0.996179 5.38775L1.00396 4.78781L1.00393 4.7878L0.996142 5.38775ZM1.30003 5.09384V5.08778H0.700034V5.09384H1.30003ZM1.30003 14.5993V5.09384H0.700034V14.5993H1.30003ZM0.999992 14.8993H1.00003V14.2993H0.999992V14.8993ZM1.30005 14.6019L1.29997 14.5954L0.700018 14.6032L0.700102 14.6097L1.30005 14.6019ZM1.45207 15.0758C1.3552 14.9366 1.30225 14.7715 1.30005 14.6019L0.700102 14.6097C0.703861 14.8991 0.794212 15.1808 0.959519 15.4185L1.45207 15.0758ZM1.84356 15.3832C1.6853 15.3221 1.54894 15.2151 1.45207 15.0758L0.959519 15.4185C1.12483 15.6561 1.35752 15.8388 1.6276 15.943L1.84356 15.3832ZM1.84371 15.3833L1.84339 15.3831L1.62777 15.9431L1.62808 15.9432L1.84371 15.3833ZM9.63457 18.3829L1.84369 15.3833L1.6281 15.9432L9.41899 18.9429L9.63457 18.3829ZM9.68298 18.3949C9.66644 18.3929 9.65018 18.3889 9.63457 18.3829L9.41899 18.9429C9.4814 18.9669 9.54646 18.9829 9.61263 18.9908L9.68298 18.3949ZM9.94018 18.4872C9.89614 18.4872 9.85623 18.4733 9.82342 18.4496L9.4722 18.9361C9.60383 19.0311 9.7659 19.0872 9.94018 19.0872V18.4872ZM10.0569 18.4496C10.0241 18.4733 9.98422 18.4872 9.94018 18.4872V19.0872C10.1145 19.0872 10.2765 19.0311 10.4082 18.936L10.0569 18.4496ZM10.2457 18.3829C10.2302 18.3889 10.2139 18.3929 10.1974 18.3949L10.2678 18.9907C10.3339 18.9829 10.3989 18.9669 10.4613 18.9428L10.2457 18.3829ZM18.0366 15.3833L10.2458 18.3829L10.4613 18.9429L18.2522 15.9432L18.0366 15.3833ZM18.0372 15.3831L18.0368 15.3832L18.252 15.9433L18.2523 15.9431L18.0372 15.3831ZM18.4283 15.0758C18.3314 15.2151 18.195 15.3221 18.0368 15.3832L18.2527 15.943C18.5228 15.8388 18.7555 15.6561 18.9208 15.4185L18.4283 15.0758ZM18.5803 14.6019C18.5781 14.7715 18.5251 14.9366 18.4283 15.0758L18.9208 15.4185C19.0861 15.1808 19.1765 14.8991 19.1802 14.6097L18.5803 14.6019ZM18.8803 14.3058H18.8802V14.9058H18.8803V14.3058ZM18.5803 14.5993V14.6058H19.1803V14.5993H18.5803ZM18.5803 5.16042V14.5993H19.1803V5.16042H18.5803ZM18.3981 4.5847C18.526 4.74258 18.591 4.94222 18.5807 5.14511L19.1799 5.17573C19.1978 4.82498 19.0854 4.47986 18.8642 4.2069L18.3981 4.5847ZM18.0364 4.30977C18.1776 4.36396 18.3008 4.45654 18.392 4.57696L18.8702 4.21464C18.7114 4.00504 18.4971 3.84391 18.2514 3.74961L18.0364 4.30977ZM18.0356 4.30946L18.0378 4.31029L18.25 3.74909L18.2479 3.74826L18.0356 4.30946ZM10.2545 1.36546L18.0356 4.30945L18.2479 3.74827L10.4669 0.804283L10.2545 1.36546ZM9.94016 1.3C10.0447 1.3 10.1481 1.32089 10.2443 1.36139L10.477 0.808353C10.3071 0.736863 10.1246 0.7 9.94016 0.7V1.3ZM9.74018 17.558V8.29393H9.14018V17.558H9.74018ZM1.98772 15.0101L9.33239 17.8379L9.54797 17.278L2.20331 14.4502L1.98772 15.0101ZM1.98617 15.0095L1.98622 15.0095L2.20481 14.4507L2.20476 14.4507L1.98617 15.0095ZM1.78044 14.8474C1.83166 14.921 1.90374 14.9777 1.98739 15.01L2.20354 14.4502C2.23162 14.4611 2.25581 14.4801 2.27299 14.5048L1.78044 14.8474ZM1.70014 14.603C1.70251 14.6905 1.7304 14.7755 1.78044 14.8474L2.27299 14.5048C2.28978 14.5289 2.29913 14.5574 2.29992 14.5868L1.70014 14.603ZM1.70003 5.42948V14.5949H2.30003V5.42948H1.70003ZM9.54797 8.01396L2.10782 5.14952L1.89225 5.70945L9.33239 8.5739L9.54797 8.01396ZM10.1402 8.29396V17.558H10.7402V8.29396H10.1402ZM10.548 17.8379L17.8926 15.0101L17.677 14.4502L10.3324 17.278L10.548 17.8379ZM17.8933 15.0098L17.8936 15.0097L17.6765 14.4503L17.6763 14.4504L17.8933 15.0098ZM17.8936 15.0097C17.977 14.9774 18.0488 14.9208 18.0999 14.8474L17.6073 14.5048C17.6245 14.4802 17.6486 14.4612 17.6766 14.4503L17.8936 15.0097ZM18.0999 14.8474C18.1499 14.7755 18.1778 14.6905 18.1802 14.603L17.5804 14.5868C17.5812 14.5574 17.5905 14.5289 17.6073 14.5048L18.0999 14.8474ZM18.1803 14.5949V5.42952H17.5803V14.5949H18.1803ZM17.7725 5.14956L10.3324 8.01399L10.548 8.57393L17.9881 5.70949L17.7725 5.14956ZM17.1465 4.40075L10.1031 1.73584L9.89079 2.29702L16.9342 4.96193L17.1465 4.40075ZM10.1031 1.73584C10.1 1.73467 10.0969 1.73341 10.0939 1.73208L9.85387 2.28199C9.86605 2.2873 9.87836 2.29232 9.89079 2.29702L10.1031 1.73584ZM10.0939 1.73209C10.0454 1.71092 9.99306 1.7 9.94016 1.7V2.3C9.91046 2.3 9.88109 2.29387 9.85387 2.28199L10.0939 1.73209ZM9.94016 1.7C9.88726 1.7 9.83493 1.71092 9.78645 1.73208L10.0264 2.28199C9.99923 2.29387 9.96986 2.3 9.94016 2.3V1.7ZM9.78643 1.73209C9.78374 1.73326 9.78103 1.73438 9.7783 1.73543L9.99388 2.29536C10.0048 2.29114 10.0157 2.28668 10.0265 2.28199L9.78643 1.73209ZM9.7783 1.73543L2.79322 4.42484L3.0088 4.98477L9.99388 2.29536L9.7783 1.73543ZM2.79322 4.98477L9.83243 7.69486L10.048 7.13492L3.0088 4.42484L2.79322 4.98477ZM10.048 7.69486L17.1482 4.96131L16.9326 4.40137L9.83243 7.13492L10.048 7.69486Z" fill="black" mask="url(#path-1-outside-1_670_295)"/>
</g>
</g>
<defs>
<clipPath id="clip0_670_295">
<rect width="20" height="20" fill="white"/>
</clipPath>
</defs>
</svg>
