<svg width="20" height="20" viewBox="0 0 20 20" fill="none" xmlns="http://www.w3.org/2000/svg">
<g id="ico">
<path id="Vector (Stroke)" fill-rule="evenodd" clip-rule="evenodd" d="M2.87101 12.0028C2.93779 11.6689 3.23094 11.4286 3.57143 11.4286H16.4286C16.7691 11.4286 17.0622 11.6689 17.129 12.0028L18.2151 17.4333C18.2764 17.7446 18.2679 18.0656 18.1901 18.3732C18.1125 18.6798 17.9681 18.9653 17.7671 19.2095C17.568 19.4542 17.3173 19.652 17.0329 19.7886C16.7476 19.9257 16.4355 19.9979 16.119 20L16.1143 20H3.88099C3.56448 19.9979 3.25236 19.9257 2.96706 19.7886C2.6827 19.652 2.43203 19.4542 2.23294 19.2095C2.03196 18.9654 1.88751 18.6798 1.80994 18.3732C1.73212 18.0656 1.72357 17.7446 1.7849 17.4333L1.7853 17.4313L2.87101 12.0028ZM4.157 12.8571L3.18652 17.7095C3.18647 17.7098 3.18658 17.7092 3.18652 17.7095C3.16625 17.813 3.169 17.9206 3.19487 18.0228C3.22081 18.1253 3.26919 18.2208 3.33652 18.3024L3.34046 18.3071C3.40692 18.3891 3.4907 18.4553 3.58579 18.501C3.6803 18.5464 3.78364 18.5704 3.88847 18.5714H16.1115C16.2164 18.5704 16.3197 18.5464 16.4142 18.501C16.5093 18.4553 16.5931 18.3891 16.6596 18.3072L16.6635 18.3024C16.7308 18.2208 16.7792 18.1253 16.8051 18.0228C16.831 17.9206 16.8339 17.8139 16.8137 17.7104C16.8136 17.7101 16.8137 17.7107 16.8137 17.7104L15.843 12.8571H4.157Z" fill="#000001"/>
<path id="Vector (Stroke)_2" fill-rule="evenodd" clip-rule="evenodd" d="M9.99999 1.42857C9.43167 1.42857 8.88662 1.65434 8.48476 2.0562C8.08289 2.45806 7.85713 3.00311 7.85713 3.57143V6.42857C7.85713 6.99689 7.63136 7.54194 7.2295 7.9438C6.82764 8.34566 6.28259 8.57143 5.71427 8.57143H3.57142C3.38198 8.57143 3.20029 8.64668 3.06634 8.78064C2.93238 8.91459 2.85713 9.09627 2.85713 9.28571V11.4286H17.1428V9.28571C17.1428 9.09627 17.0676 8.91459 16.9336 8.78064C16.7997 8.64668 16.618 8.57143 16.4286 8.57143H14.2857C13.7174 8.57143 13.1723 8.34566 12.7705 7.9438C12.3686 7.54194 12.1428 6.99689 12.1428 6.42857V3.57143C12.1428 3.00311 11.9171 2.45806 11.5152 2.0562C11.1134 1.65434 10.5683 1.42857 9.99999 1.42857ZM7.47461 1.04605C8.14438 0.376274 9.05278 0 9.99999 0C10.9472 0 11.8556 0.376275 12.5254 1.04605C13.1951 1.71582 13.5714 2.62423 13.5714 3.57143V6.42857C13.5714 6.61801 13.6467 6.79969 13.7806 6.93365C13.9146 7.0676 14.0963 7.14286 14.2857 7.14286H16.4286C16.9969 7.14286 17.5419 7.36862 17.9438 7.77049C18.3456 8.17235 18.5714 8.71739 18.5714 9.28571V12.1429C18.5714 12.5373 18.2516 12.8571 17.8571 12.8571H2.14284C1.74835 12.8571 1.42856 12.5373 1.42856 12.1429V9.28571C1.42856 8.71739 1.65432 8.17235 2.05619 7.77049C2.45805 7.36862 3.00309 7.14286 3.57142 7.14286H5.71427C5.90371 7.14286 6.08539 7.0676 6.21935 6.93365C6.3533 6.79969 6.42856 6.61801 6.42856 6.42857V3.57143C6.42856 2.62423 6.80483 1.71582 7.47461 1.04605Z" fill="#000001"/>
<path id="Vector (Stroke)_3" fill-rule="evenodd" clip-rule="evenodd" d="M12.1428 15C12.5373 15 12.8571 15.3198 12.8571 15.7143V19.2857C12.8571 19.6802 12.5373 20 12.1428 20C11.7484 20 11.4286 19.6802 11.4286 19.2857V15.7143C11.4286 15.3198 11.7484 15 12.1428 15Z" fill="#000001"/>
</g>
</svg>
