<svg width="30" height="30" viewBox="0 0 30 30" fill="none" xmlns="http://www.w3.org/2000/svg">
<g id="Bold / Video, Audio, Sound / Gallery">
<g id="Vector">
<path d="M21 11C21 12.1046 20.1046 13 19 13C17.8954 13 17 12.1046 17 11C17 9.89543 17.8954 9 19 9C20.1046 9 21 9.89543 21 11Z" fill="#C3C4C8"/>
<path fill-rule="evenodd" clip-rule="evenodd" d="M14.9426 4.25H15.0574C17.3658 4.24999 19.1748 4.24998 20.5863 4.43975C22.031 4.63399 23.1711 5.03933 24.0659 5.93414C24.9607 6.82895 25.366 7.96897 25.5603 9.41371C25.75 10.8252 25.75 12.6342 25.75 14.9426V15.0309C25.75 16.9397 25.75 18.5023 25.6463 19.7745C25.5422 21.0531 25.3287 22.1214 24.8509 23.0087C24.6401 23.4001 24.3812 23.7506 24.0659 24.0659C23.1711 24.9607 22.031 25.366 20.5863 25.5603C19.1748 25.75 17.3658 25.75 15.0574 25.75H14.9426C12.6342 25.75 10.8252 25.75 9.41371 25.5603C7.96897 25.366 6.82895 24.9607 5.93414 24.0659C5.14086 23.2726 4.7312 22.2852 4.51335 21.0604C4.29935 19.8573 4.2602 18.3603 4.25207 16.5015C4.25 16.0287 4.25 15.5286 4.25 15.001V14.9426C4.24999 12.6342 4.24998 10.8252 4.43975 9.41371C4.63399 7.96897 5.03933 6.82895 5.93414 5.93414C6.82895 5.03933 7.96897 4.63399 9.41371 4.43975C10.8252 4.24998 12.6342 4.24999 14.9426 4.25ZM9.61358 5.92637C8.33517 6.09825 7.56445 6.42514 6.9948 6.9948C6.42514 7.56445 6.09825 8.33517 5.92637 9.61358C5.75159 10.9136 5.75 12.6218 5.75 15C5.75 15.2905 5.75 15.5715 5.75034 15.8435L6.75148 14.9675C7.66275 14.1702 9.03617 14.2159 9.89238 15.0721L14.1821 19.3618C14.8693 20.0491 15.9511 20.1428 16.7463 19.5839L17.0445 19.3744C18.1887 18.5702 19.7368 18.6634 20.7764 19.599L23.6068 22.1463C23.8917 21.548 24.0609 20.7618 24.1513 19.6527C24.2494 18.4482 24.25 16.9459 24.25 15C24.25 12.6218 24.2484 10.9136 24.0736 9.61358C23.9018 8.33517 23.5749 7.56445 23.0052 6.9948C22.4355 6.42514 21.6648 6.09825 20.3864 5.92637C19.0864 5.75159 17.3782 5.75 15 5.75C12.6218 5.75 10.9136 5.75159 9.61358 5.92637Z" fill="#C3C4C8"/>
</g>
<g id="Frame 6388">
<rect x="20" y="2.5" width="8" height="8" rx="4" fill="#C3C4C8"/>
<path id="+" d="M23.56 9.08V6.92H21.53V6.08H23.56V3.92H24.44V6.08H26.47V6.92H24.44V9.08H23.56Z" fill="white"/>
</g>
</g>
</svg>
