<svg width="20" height="20" viewBox="0 0 20 20" fill="none" xmlns="http://www.w3.org/2000/svg">
<g id="ico">
<g id="Vector (Stroke)">
<mask id="path-1-outside-1_670_292" maskUnits="userSpaceOnUse" x="0.977119" y="1" width="18" height="18" fill="black">
<rect fill="white" x="0.977119" y="1" width="18" height="18"/>
<path fill-rule="evenodd" clip-rule="evenodd" d="M3.23437 2.06323C3.51933 1.98374 3.81997 1.97912 4.10723 2.04982L14.7145 4.673C15.012 4.73907 15.2867 4.88307 15.5104 5.09031C15.7363 5.29964 15.9018 5.5658 15.9896 5.86098C16.0775 6.15616 16.0844 6.46952 16.0098 6.76831C15.9351 7.0671 15.7815 7.34034 15.5651 7.55948L15.5626 7.56205L13.6754 9.44923L17.855 13.6288C17.963 13.7368 18.0234 13.8834 18.0229 14.036C18.0224 14.1887 17.961 14.3348 17.8523 14.4421L14.4136 17.8349C14.1894 18.0561 13.8286 18.0549 13.6059 17.8321L9.42626 13.6525L7.54086 15.5379C7.5405 15.5383 7.54013 15.5387 7.53976 15.539C7.32546 15.7548 7.05773 15.9099 6.76389 15.9885C6.46955 16.0672 6.15958 16.0663 5.86571 15.9858C5.57185 15.9054 5.30464 15.7483 5.09145 15.5306C4.87826 15.3129 4.72674 15.0425 4.6524 14.747L4.65184 14.7448L2.02701 4.13082C1.95631 3.84356 1.96078 3.54229 2.04027 3.25734C2.11976 2.97239 2.27143 2.71276 2.48061 2.50358C2.6898 2.29439 2.94942 2.14272 3.23437 2.06323ZM3.83305 3.16276C3.73738 3.13926 3.63726 3.14082 3.54236 3.16729C3.44738 3.19379 3.36084 3.24435 3.29111 3.31408C3.22138 3.3838 3.17082 3.47034 3.14433 3.56533C3.11786 3.66022 3.11629 3.76034 3.13979 3.85601C3.13981 3.8561 3.13977 3.85592 3.13979 3.85601L5.76398 14.4674C5.76405 14.4677 5.7639 14.4671 5.76398 14.4674C5.78884 14.5655 5.83948 14.6562 5.91033 14.7286C5.98139 14.8011 6.07046 14.8535 6.16841 14.8803C6.26637 14.9071 6.36969 14.9074 6.46781 14.8812C6.56592 14.855 6.6553 14.8031 6.7268 14.731L6.72858 14.7292L9.02101 12.4368C9.12849 12.3293 9.27427 12.2689 9.42626 12.2689C9.57826 12.2689 9.72403 12.3293 9.83151 12.4368L14.0138 16.6191L16.6365 14.0314L12.4597 9.85448C12.3522 9.747 12.2918 9.60123 12.2918 9.44923C12.2918 9.29723 12.3522 9.15146 12.4597 9.04398L14.7495 6.75411C14.7499 6.75375 14.7503 6.75338 14.7506 6.75301C14.8222 6.68015 14.873 6.58948 14.8978 6.49039C14.9226 6.39079 14.9203 6.28634 14.891 6.18795C14.8618 6.08955 14.8066 6.00083 14.7313 5.93105C14.656 5.86128 14.5633 5.81301 14.463 5.79129L14.4467 5.7875L3.83305 3.16276C3.83296 3.16273 3.83314 3.16278 3.83305 3.16276Z"/>
</mask>
<path fill-rule="evenodd" clip-rule="evenodd" d="M3.23437 2.06323C3.51933 1.98374 3.81997 1.97912 4.10723 2.04982L14.7145 4.673C15.012 4.73907 15.2867 4.88307 15.5104 5.09031C15.7363 5.29964 15.9018 5.5658 15.9896 5.86098C16.0775 6.15616 16.0844 6.46952 16.0098 6.76831C15.9351 7.0671 15.7815 7.34034 15.5651 7.55948L15.5626 7.56205L13.6754 9.44923L17.855 13.6288C17.963 13.7368 18.0234 13.8834 18.0229 14.036C18.0224 14.1887 17.961 14.3348 17.8523 14.4421L14.4136 17.8349C14.1894 18.0561 13.8286 18.0549 13.6059 17.8321L9.42626 13.6525L7.54086 15.5379C7.5405 15.5383 7.54013 15.5387 7.53976 15.539C7.32546 15.7548 7.05773 15.9099 6.76389 15.9885C6.46955 16.0672 6.15958 16.0663 5.86571 15.9858C5.57185 15.9054 5.30464 15.7483 5.09145 15.5306C4.87826 15.3129 4.72674 15.0425 4.6524 14.747L4.65184 14.7448L2.02701 4.13082C1.95631 3.84356 1.96078 3.54229 2.04027 3.25734C2.11976 2.97239 2.27143 2.71276 2.48061 2.50358C2.6898 2.29439 2.94942 2.14272 3.23437 2.06323ZM3.83305 3.16276C3.73738 3.13926 3.63726 3.14082 3.54236 3.16729C3.44738 3.19379 3.36084 3.24435 3.29111 3.31408C3.22138 3.3838 3.17082 3.47034 3.14433 3.56533C3.11786 3.66022 3.11629 3.76034 3.13979 3.85601C3.13981 3.8561 3.13977 3.85592 3.13979 3.85601L5.76398 14.4674C5.76405 14.4677 5.7639 14.4671 5.76398 14.4674C5.78884 14.5655 5.83948 14.6562 5.91033 14.7286C5.98139 14.8011 6.07046 14.8535 6.16841 14.8803C6.26637 14.9071 6.36969 14.9074 6.46781 14.8812C6.56592 14.855 6.6553 14.8031 6.7268 14.731L6.72858 14.7292L9.02101 12.4368C9.12849 12.3293 9.27427 12.2689 9.42626 12.2689C9.57826 12.2689 9.72403 12.3293 9.83151 12.4368L14.0138 16.6191L16.6365 14.0314L12.4597 9.85448C12.3522 9.747 12.2918 9.60123 12.2918 9.44923C12.2918 9.29723 12.3522 9.15146 12.4597 9.04398L14.7495 6.75411C14.7499 6.75375 14.7503 6.75338 14.7506 6.75301C14.8222 6.68015 14.873 6.58948 14.8978 6.49039C14.9226 6.39079 14.9203 6.28634 14.891 6.18795C14.8618 6.08955 14.8066 6.00083 14.7313 5.93105C14.656 5.86128 14.5633 5.81301 14.463 5.79129L14.4467 5.7875L3.83305 3.16276C3.83296 3.16273 3.83314 3.16278 3.83305 3.16276Z" fill="#000001"/>
<path d="M4.10723 2.04982L4.17925 1.75859L4.17893 1.75851L4.10723 2.04982ZM3.23437 2.06323L3.15376 1.77426L3.15376 1.77426L3.23437 2.06323ZM14.7145 4.673L14.6425 4.96431L14.6495 4.96586L14.7145 4.673ZM15.5104 5.09031L15.7143 4.87026L15.7143 4.87026L15.5104 5.09031ZM15.9896 5.86098L15.7021 5.94656L15.7021 5.94656L15.9896 5.86098ZM16.0098 6.76831L16.3008 6.84105L16.3008 6.84105L16.0098 6.76831ZM15.5651 7.55948L15.3517 7.34869L15.3517 7.34869L15.5651 7.55948ZM15.5626 7.56205L15.7747 7.77419L15.7761 7.77284L15.5626 7.56205ZM13.6754 9.44923L13.4633 9.2371C13.407 9.29336 13.3754 9.36966 13.3754 9.44923C13.3754 9.52879 13.407 9.6051 13.4633 9.66136L13.6754 9.44923ZM17.855 13.6288L18.0672 13.4167L18.0672 13.4167L17.855 13.6288ZM18.0229 14.036L17.7229 14.035L17.7229 14.035L18.0229 14.036ZM17.8523 14.4421L17.6416 14.2285L17.6416 14.2285L17.8523 14.4421ZM14.4136 17.8349L14.2029 17.6213L14.2029 17.6213L14.4136 17.8349ZM13.6059 17.8321L13.3937 18.0443L13.3937 18.0443L13.6059 17.8321ZM9.42626 13.6525L9.6384 13.4404C9.52124 13.3232 9.33129 13.3232 9.21413 13.4404L9.42626 13.6525ZM7.54086 15.5379L7.32873 15.3258L7.32795 15.3266L7.54086 15.5379ZM7.53976 15.539L7.75264 15.7504L7.75268 15.7504L7.53976 15.539ZM6.76389 15.9885L6.6864 15.6987L6.6864 15.6987L6.76389 15.9885ZM5.86571 15.9858L5.78649 16.2752L5.78649 16.2752L5.86571 15.9858ZM5.09145 15.5306L4.87712 15.7405L4.87712 15.7405L5.09145 15.5306ZM4.6524 14.747L4.36131 14.8196L4.36147 14.8202L4.6524 14.747ZM4.65184 14.7448L4.36061 14.8168L4.36076 14.8174L4.65184 14.7448ZM2.02701 4.13082L1.7357 4.20252L1.73578 4.20285L2.02701 4.13082ZM2.04027 3.25734L1.7513 3.17673L1.7513 3.17673L2.04027 3.25734ZM2.48061 2.50358L2.26848 2.29145L2.26848 2.29145L2.48061 2.50358ZM3.54236 3.16729L3.62297 3.45626L3.62297 3.45626L3.54236 3.16729ZM3.29111 3.31408L3.50324 3.52621L3.50324 3.52621L3.29111 3.31408ZM3.14433 3.56533L3.4333 3.64594L3.4333 3.64594L3.14433 3.56533ZM5.91033 14.7286L6.12465 14.5186L6.12465 14.5186L5.91033 14.7286ZM6.16841 14.8803L6.24764 14.591L6.24764 14.591L6.16841 14.8803ZM6.46781 14.8812L6.5453 15.171L6.5453 15.171L6.46781 14.8812ZM6.7268 14.731L6.51415 14.5194L6.51373 14.5198L6.7268 14.731ZM6.72858 14.7292L6.51645 14.5171L6.51593 14.5176L6.72858 14.7292ZM9.83151 12.4368L9.61938 12.6489L9.61938 12.6489L9.83151 12.4368ZM14.0138 16.6191L13.8017 16.8312C13.9183 16.9478 14.1072 16.9485 14.2245 16.8327L14.0138 16.6191ZM16.6365 14.0314L16.8473 14.2449C16.9041 14.1888 16.9363 14.1123 16.9365 14.0324C16.9368 13.9525 16.9052 13.8757 16.8487 13.8192L16.6365 14.0314ZM12.4597 9.85448L12.6718 9.64234L12.6718 9.64234L12.4597 9.85448ZM12.4597 9.04398L12.2475 8.83185L12.2475 8.83185L12.4597 9.04398ZM14.7495 6.75411L14.9617 6.96625L14.9631 6.9648L14.7495 6.75411ZM14.7506 6.75301L14.5366 6.5428L14.5365 6.54289L14.7506 6.75301ZM14.8978 6.49039L14.6067 6.41765L14.6067 6.41765L14.8978 6.49039ZM14.891 6.18795L14.6035 6.27352L14.6035 6.27352L14.891 6.18795ZM14.7313 5.93105L14.5274 6.1511L14.5274 6.1511L14.7313 5.93105ZM14.463 5.79129L14.3952 6.08357L14.3995 6.0845L14.463 5.79129ZM14.4467 5.7875L14.3746 6.07876L14.3789 6.07975L14.4467 5.7875ZM4.17893 1.75851C3.84154 1.67548 3.48844 1.6809 3.15376 1.77426L3.31498 2.3522C3.55022 2.28658 3.7984 2.28276 4.03554 2.34112L4.17893 1.75851ZM14.7865 4.38177L4.17925 1.75859L4.03521 2.34104L14.6425 4.96422L14.7865 4.38177ZM15.7143 4.87026C15.4516 4.62686 15.129 4.45774 14.7795 4.38013L14.6495 4.96586C14.8951 5.02041 15.1218 5.13928 15.3065 5.31036L15.7143 4.87026ZM16.2772 5.77541C16.174 5.42872 15.9796 5.11611 15.7143 4.87026L15.3065 5.31036C15.4929 5.48316 15.6296 5.70288 15.7021 5.94656L16.2772 5.77541ZM16.3008 6.84105C16.3885 6.49013 16.3804 6.12209 16.2772 5.77541L15.7021 5.94656C15.7746 6.19023 15.7804 6.44892 15.7187 6.69557L16.3008 6.84105ZM15.7786 7.77027C16.0328 7.51289 16.2131 7.19197 16.3008 6.84105L15.7187 6.69557C15.6571 6.94222 15.5303 7.16779 15.3517 7.34869L15.7786 7.77027ZM15.7761 7.77284L15.7786 7.77027L15.3517 7.34869L15.3491 7.35126L15.7761 7.77284ZM13.8875 9.66136L15.7747 7.77419L15.3505 7.34992L13.4633 9.2371L13.8875 9.66136ZM18.0672 13.4167L13.8875 9.2371L13.4633 9.66136L17.6429 13.841L18.0672 13.4167ZM18.3229 14.037C18.3237 13.8044 18.2316 13.5812 18.0672 13.4167L17.6429 13.841C17.6943 13.8924 17.7231 13.9623 17.7229 14.035L18.3229 14.037ZM18.063 14.6556C18.2286 14.4923 18.3221 14.2696 18.3229 14.037L17.7229 14.035C17.7226 14.1078 17.6934 14.1774 17.6416 14.2285L18.063 14.6556ZM14.6244 18.0484L18.063 14.6556L17.6416 14.2285L14.2029 17.6213L14.6244 18.0484ZM13.3937 18.0443C13.7331 18.3836 14.2827 18.3855 14.6244 18.0484L14.2029 17.6213C14.0961 17.7267 13.9242 17.7262 13.818 17.62L13.3937 18.0443ZM9.21413 13.8647L13.3937 18.0443L13.818 17.62L9.6384 13.4404L9.21413 13.8647ZM7.753 15.75L9.63839 13.8647L9.21413 13.4404L7.32873 15.3258L7.753 15.75ZM7.75268 15.7504C7.75268 15.7504 7.75268 15.7504 7.75268 15.7504C7.75268 15.7504 7.75269 15.7504 7.75269 15.7504C7.75269 15.7504 7.75269 15.7504 7.75269 15.7504C7.75269 15.7504 7.75269 15.7504 7.75269 15.7504C7.75269 15.7504 7.75269 15.7504 7.75269 15.7504C7.7527 15.7504 7.7527 15.7504 7.7527 15.7504C7.75273 15.7503 7.75268 15.7504 7.75271 15.7503C7.75271 15.7503 7.75271 15.7503 7.75271 15.7503C7.75271 15.7503 7.75271 15.7503 7.75272 15.7503C7.75272 15.7503 7.75272 15.7503 7.75272 15.7503C7.75273 15.7503 7.75272 15.7503 7.75273 15.7503C7.75273 15.7503 7.75273 15.7503 7.75273 15.7503C7.75276 15.7503 7.75271 15.7503 7.75274 15.7503C7.75274 15.7503 7.75274 15.7503 7.75274 15.7503C7.75275 15.7503 7.75275 15.7503 7.75275 15.7503C7.75275 15.7503 7.75275 15.7503 7.75275 15.7503C7.75275 15.7503 7.75275 15.7503 7.75275 15.7503C7.75275 15.7503 7.75275 15.7503 7.75276 15.7503C7.75276 15.7503 7.75276 15.7503 7.75276 15.7503C7.75276 15.7503 7.75276 15.7503 7.75276 15.7503C7.75276 15.7503 7.75276 15.7503 7.75276 15.7503C7.75276 15.7503 7.75276 15.7503 7.75276 15.7503C7.75277 15.7503 7.75277 15.7503 7.75277 15.7503C7.75278 15.7503 7.75276 15.7503 7.75278 15.7503C7.75278 15.7503 7.75278 15.7503 7.75278 15.7503C7.75278 15.7503 7.75278 15.7503 7.75279 15.7503C7.75279 15.7503 7.75278 15.7503 7.75279 15.7503C7.7528 15.7502 7.75279 15.7503 7.7528 15.7502C7.7528 15.7502 7.7528 15.7502 7.75281 15.7502C7.75281 15.7502 7.75281 15.7502 7.75281 15.7502C7.75281 15.7502 7.75281 15.7502 7.75281 15.7502C7.75281 15.7502 7.75281 15.7502 7.75282 15.7502C7.75282 15.7502 7.75282 15.7502 7.75282 15.7502C7.75282 15.7502 7.75282 15.7502 7.75282 15.7502C7.75282 15.7502 7.75282 15.7502 7.75282 15.7502C7.75282 15.7502 7.75283 15.7502 7.75283 15.7502C7.75283 15.7502 7.75283 15.7502 7.75283 15.7502C7.75283 15.7502 7.75283 15.7502 7.75283 15.7502C7.75283 15.7502 7.75283 15.7502 7.75284 15.7502C7.75285 15.7502 7.75283 15.7502 7.75285 15.7502C7.75285 15.7502 7.75285 15.7502 7.75285 15.7502C7.75286 15.7502 7.75286 15.7502 7.75286 15.7502C7.75287 15.7502 7.75286 15.7502 7.75287 15.7502C7.75287 15.7502 7.75287 15.7502 7.75287 15.7502C7.75288 15.7502 7.75287 15.7502 7.75288 15.7502C7.75288 15.7502 7.75288 15.7502 7.75288 15.7502C7.75288 15.7502 7.75288 15.7502 7.75288 15.7502C7.75289 15.7502 7.75288 15.7502 7.75289 15.7502C7.75289 15.7502 7.75289 15.7502 7.75289 15.7502C7.75289 15.7502 7.75289 15.7502 7.75289 15.7502C7.75289 15.7502 7.75289 15.7502 7.75289 15.7502C7.7529 15.7502 7.7529 15.7502 7.7529 15.7502C7.7529 15.7502 7.7529 15.7501 7.7529 15.7501C7.7529 15.7501 7.7529 15.7501 7.7529 15.7501C7.7529 15.7501 7.7529 15.7501 7.7529 15.7501C7.7529 15.7501 7.7529 15.7501 7.75291 15.7501C7.75292 15.7501 7.7529 15.7501 7.75291 15.7501C7.75292 15.7501 7.75292 15.7501 7.75292 15.7501C7.75292 15.7501 7.75292 15.7501 7.75292 15.7501C7.75292 15.7501 7.75293 15.7501 7.75293 15.7501C7.75294 15.7501 7.75293 15.7501 7.75294 15.7501C7.75294 15.7501 7.75294 15.7501 7.75294 15.7501C7.75295 15.7501 7.75294 15.7501 7.75295 15.7501C7.75295 15.7501 7.75295 15.7501 7.75295 15.7501C7.75295 15.7501 7.75295 15.7501 7.75295 15.7501C7.75295 15.7501 7.75295 15.7501 7.75296 15.7501C7.75296 15.7501 7.75296 15.7501 7.75296 15.7501C7.75296 15.7501 7.75296 15.7501 7.75296 15.7501C7.75296 15.7501 7.75296 15.7501 7.75297 15.7501C7.75297 15.7501 7.75297 15.7501 7.75297 15.7501C7.75297 15.7501 7.75297 15.7501 7.75297 15.7501C7.75297 15.7501 7.75297 15.7501 7.75297 15.7501C7.753 15.75 7.75295 15.7501 7.75298 15.7501C7.75298 15.7501 7.75299 15.7501 7.75299 15.7501C7.75299 15.7501 7.75299 15.7501 7.75299 15.7501C7.75299 15.7501 7.753 15.75 7.753 15.75C7.75301 15.75 7.753 15.75 7.753 15.75C7.75301 15.75 7.753 15.75 7.75301 15.75C7.75304 15.75 7.75299 15.7501 7.75302 15.75C7.75302 15.75 7.75302 15.75 7.75302 15.75C7.75302 15.75 7.75302 15.75 7.75302 15.75C7.75303 15.75 7.75302 15.75 7.75303 15.75C7.75303 15.75 7.75303 15.75 7.75303 15.75C7.75303 15.75 7.75303 15.75 7.75303 15.75C7.75303 15.75 7.75303 15.75 7.75303 15.75C7.75303 15.75 7.75303 15.75 7.75303 15.75C7.75304 15.75 7.75304 15.75 7.75304 15.75C7.75304 15.75 7.75304 15.75 7.75304 15.75C7.75304 15.75 7.75304 15.75 7.75304 15.75C7.75306 15.75 7.75304 15.75 7.75305 15.75C7.75305 15.75 7.75305 15.75 7.75306 15.75C7.75306 15.75 7.75306 15.75 7.75306 15.75C7.75307 15.75 7.75306 15.75 7.75307 15.75C7.75308 15.75 7.75307 15.75 7.75308 15.75C7.75308 15.75 7.75308 15.75 7.75308 15.75C7.75309 15.75 7.75308 15.75 7.75309 15.75C7.75309 15.75 7.75309 15.75 7.75309 15.75C7.75309 15.75 7.75309 15.75 7.75309 15.75C7.75309 15.75 7.75309 15.75 7.75309 15.75C7.7531 15.75 7.7531 15.75 7.7531 15.7499C7.7531 15.7499 7.7531 15.7499 7.7531 15.7499C7.7531 15.7499 7.7531 15.7499 7.7531 15.7499C7.7531 15.7499 7.7531 15.7499 7.75311 15.7499C7.75311 15.7499 7.75311 15.7499 7.75311 15.7499C7.75311 15.7499 7.75311 15.7499 7.75311 15.7499C7.75312 15.7499 7.75311 15.7499 7.75312 15.7499C7.75313 15.7499 7.75312 15.7499 7.75313 15.7499C7.75313 15.7499 7.75314 15.7499 7.75314 15.7499C7.75314 15.7499 7.75314 15.7499 7.75314 15.7499C7.75314 15.7499 7.75314 15.7499 7.75315 15.7499C7.75316 15.7499 7.75314 15.7499 7.75315 15.7499C7.75316 15.7499 7.75316 15.7499 7.75316 15.7499C7.75316 15.7499 7.75316 15.7499 7.75316 15.7499C7.75316 15.7499 7.75316 15.7499 7.75316 15.7499C7.75316 15.7499 7.75316 15.7499 7.75317 15.7499C7.75317 15.7499 7.75317 15.7499 7.75317 15.7499C7.75317 15.7499 7.75317 15.7499 7.75317 15.7499C7.75317 15.7499 7.75317 15.7499 7.75317 15.7499C7.75317 15.7499 7.75317 15.7499 7.75317 15.7499C7.75317 15.7499 7.75318 15.7499 7.75318 15.7499C7.75318 15.7499 7.75318 15.7499 7.75318 15.7499C7.75318 15.7499 7.75318 15.7499 7.75318 15.7499C7.75319 15.7499 7.75318 15.7499 7.75319 15.7499C7.75319 15.7499 7.75319 15.7499 7.75319 15.7499C7.7532 15.7499 7.7532 15.7498 7.7532 15.7498C7.7532 15.7498 7.7532 15.7498 7.75321 15.7498C7.75322 15.7498 7.75321 15.7498 7.75321 15.7498C7.75322 15.7498 7.75322 15.7498 7.75322 15.7498C7.75322 15.7498 7.75322 15.7498 7.75322 15.7498C7.75322 15.7498 7.75322 15.7498 7.75323 15.7498C7.75323 15.7498 7.75323 15.7498 7.75323 15.7498C7.75323 15.7498 7.75323 15.7498 7.75323 15.7498C7.75323 15.7498 7.75323 15.7498 7.75323 15.7498C7.75323 15.7498 7.75324 15.7498 7.75324 15.7498C7.75324 15.7498 7.75324 15.7498 7.75324 15.7498C7.75324 15.7498 7.75324 15.7498 7.75324 15.7498C7.75324 15.7498 7.75324 15.7498 7.75324 15.7498C7.75325 15.7498 7.75325 15.7498 7.75325 15.7498C7.75328 15.7498 7.75323 15.7498 7.75326 15.7498C7.75326 15.7498 7.75326 15.7498 7.75326 15.7498C7.75326 15.7498 7.75326 15.7498 7.75327 15.7498C7.75327 15.7498 7.75327 15.7498 7.75328 15.7498C7.75328 15.7498 7.75327 15.7498 7.75328 15.7498C7.75328 15.7498 7.75328 15.7498 7.75328 15.7498C7.75331 15.7497 7.75326 15.7498 7.75329 15.7498C7.75329 15.7498 7.75329 15.7498 7.75329 15.7498C7.7533 15.7497 7.7533 15.7497 7.7533 15.7497C7.7533 15.7497 7.7533 15.7497 7.7533 15.7497C7.7533 15.7497 7.7533 15.7497 7.7533 15.7497C7.7533 15.7497 7.7533 15.7497 7.75331 15.7497C7.75331 15.7497 7.75331 15.7497 7.75331 15.7497C7.75331 15.7497 7.75331 15.7497 7.75331 15.7497C7.75331 15.7497 7.75331 15.7497 7.75331 15.7497C7.75331 15.7497 7.75331 15.7497 7.75331 15.7497C7.75332 15.7497 7.75332 15.7497 7.75332 15.7497C7.75333 15.7497 7.75331 15.7497 7.75333 15.7497C7.75333 15.7497 7.75333 15.7497 7.75333 15.7497C7.75333 15.7497 7.75333 15.7497 7.75334 15.7497C7.75334 15.7497 7.75333 15.7497 7.75334 15.7497C7.75335 15.7497 7.75334 15.7497 7.75335 15.7497C7.75335 15.7497 7.75335 15.7497 7.75336 15.7497C7.75336 15.7497 7.75336 15.7497 7.75336 15.7497C7.75336 15.7497 7.75336 15.7497 7.75336 15.7497C7.75336 15.7497 7.75336 15.7497 7.75337 15.7497C7.75337 15.7497 7.75337 15.7497 7.75337 15.7497C7.75337 15.7497 7.75337 15.7497 7.75337 15.7497C7.75337 15.7497 7.75337 15.7497 7.75337 15.7497C7.75337 15.7497 7.75338 15.7497 7.75338 15.7497C7.75338 15.7497 7.75338 15.7497 7.75338 15.7497C7.75338 15.7497 7.75338 15.7497 7.75338 15.7497C7.75338 15.7497 7.75339 15.7497 7.75339 15.7497C7.7534 15.7496 7.75338 15.7497 7.7534 15.7496C7.7534 15.7496 7.7534 15.7496 7.7534 15.7496C7.75341 15.7496 7.75341 15.7496 7.75341 15.7496C7.75342 15.7496 7.75341 15.7496 7.75342 15.7496C7.75342 15.7496 7.75342 15.7496 7.75342 15.7496C7.75343 15.7496 7.75342 15.7496 7.75343 15.7496C7.75343 15.7496 7.75343 15.7496 7.75343 15.7496C7.75343 15.7496 7.75343 15.7496 7.75343 15.7496C7.75344 15.7496 7.75343 15.7496 7.75344 15.7496C7.75344 15.7496 7.75344 15.7496 7.75344 15.7496C7.75344 15.7496 7.75344 15.7496 7.75344 15.7496C7.75344 15.7496 7.75344 15.7496 7.75344 15.7496C7.75345 15.7496 7.75345 15.7496 7.75345 15.7496C7.75345 15.7496 7.75345 15.7496 7.75345 15.7496C7.75345 15.7496 7.75345 15.7496 7.75345 15.7496C7.75345 15.7496 7.75345 15.7496 7.75345 15.7496C7.75345 15.7496 7.75345 15.7496 7.75346 15.7496C7.75347 15.7496 7.75345 15.7496 7.75346 15.7496C7.75347 15.7496 7.75347 15.7496 7.75347 15.7496C7.75347 15.7496 7.75347 15.7496 7.75347 15.7496C7.75347 15.7496 7.75348 15.7496 7.75348 15.7496C7.75349 15.7496 7.75348 15.7496 7.75349 15.7496C7.75349 15.7495 7.75349 15.7496 7.75349 15.7495C7.7535 15.7495 7.75349 15.7495 7.7535 15.7495C7.7535 15.7495 7.7535 15.7495 7.7535 15.7495C7.7535 15.7495 7.7535 15.7495 7.7535 15.7495C7.7535 15.7495 7.75351 15.7495 7.75351 15.7495C7.75351 15.7495 7.75351 15.7495 7.75351 15.7495C7.75351 15.7495 7.75351 15.7495 7.75351 15.7495C7.75351 15.7495 7.75351 15.7495 7.75352 15.7495C7.75352 15.7495 7.75352 15.7495 7.75352 15.7495C7.75352 15.7495 7.75352 15.7495 7.75352 15.7495C7.75352 15.7495 7.75352 15.7495 7.75352 15.7495C7.75355 15.7495 7.7535 15.7495 7.75353 15.7495C7.75353 15.7495 7.75354 15.7495 7.75354 15.7495C7.75354 15.7495 7.75354 15.7495 7.75354 15.7495C7.75354 15.7495 7.75355 15.7495 7.75355 15.7495C7.75356 15.7495 7.75355 15.7495 7.75355 15.7495C7.75356 15.7495 7.75356 15.7495 7.75356 15.7495C7.75359 15.7495 7.75354 15.7495 7.75357 15.7495C7.75357 15.7495 7.75357 15.7495 7.75357 15.7495C7.75357 15.7495 7.75357 15.7495 7.75357 15.7495C7.75358 15.7495 7.75357 15.7495 7.75358 15.7495C7.75358 15.7495 7.75358 15.7495 7.75358 15.7495C7.75358 15.7495 7.75358 15.7495 7.75358 15.7495C7.75358 15.7495 7.75358 15.7495 7.75358 15.7495C7.75358 15.7495 7.75358 15.7495 7.75358 15.7495C7.75359 15.7495 7.75359 15.7495 7.75359 15.7495C7.75359 15.7495 7.75359 15.7495 7.75359 15.7495C7.75359 15.7495 7.75359 15.7495 7.75359 15.7494C7.75361 15.7494 7.75359 15.7495 7.7536 15.7494C7.7536 15.7494 7.7536 15.7494 7.75361 15.7494C7.75361 15.7494 7.75361 15.7494 7.75361 15.7494C7.75362 15.7494 7.75361 15.7494 7.75362 15.7494C7.75363 15.7494 7.75362 15.7494 7.75363 15.7494C7.75363 15.7494 7.75363 15.7494 7.75363 15.7494C7.75364 15.7494 7.75363 15.7494 7.75364 15.7494C7.75364 15.7494 7.75364 15.7494 7.75364 15.7494C7.75364 15.7494 7.75364 15.7494 7.75364 15.7494C7.75364 15.7494 7.75364 15.7494 7.75364 15.7494C7.75365 15.7494 7.75365 15.7494 7.75365 15.7494C7.75365 15.7494 7.75365 15.7494 7.75365 15.7494C7.75365 15.7494 7.75365 15.7494 7.75365 15.7494C7.75365 15.7494 7.75365 15.7494 7.75366 15.7494C7.75366 15.7494 7.75366 15.7494 7.75366 15.7494C7.75366 15.7494 7.75366 15.7494 7.75366 15.7494C7.75367 15.7494 7.75366 15.7494 7.75367 15.7494C7.75368 15.7494 7.75367 15.7494 7.75368 15.7494C7.75368 15.7494 7.75369 15.7494 7.75369 15.7494C7.75369 15.7493 7.75369 15.7494 7.75369 15.7493C7.75369 15.7493 7.75369 15.7493 7.7537 15.7493C7.75371 15.7493 7.75369 15.7494 7.7537 15.7493C7.75371 15.7493 7.75371 15.7493 7.75371 15.7493C7.75371 15.7493 7.75371 15.7493 7.75371 15.7493C7.75371 15.7493 7.75371 15.7493 7.75371 15.7493C7.75371 15.7493 7.75371 15.7493 7.75372 15.7493C7.75372 15.7493 7.75372 15.7493 7.75372 15.7493C7.75372 15.7493 7.75372 15.7493 7.75372 15.7493C7.75372 15.7493 7.75372 15.7493 7.75372 15.7493C7.75372 15.7493 7.75372 15.7493 7.75372 15.7493C7.75372 15.7493 7.75373 15.7493 7.75373 15.7493C7.75373 15.7493 7.75373 15.7493 7.75373 15.7493C7.75373 15.7493 7.75373 15.7493 7.75373 15.7493C7.75374 15.7493 7.75373 15.7493 7.75374 15.7493C7.75374 15.7493 7.75374 15.7493 7.75374 15.7493C7.75375 15.7493 7.75375 15.7493 7.75375 15.7493C7.75375 15.7493 7.75375 15.7493 7.75376 15.7493C7.75377 15.7493 7.75376 15.7493 7.75377 15.7493C7.75377 15.7493 7.75377 15.7493 7.75377 15.7493C7.75377 15.7493 7.75377 15.7493 7.75377 15.7493C7.75377 15.7493 7.75378 15.7493 7.75378 15.7493C7.75378 15.7493 7.75378 15.7493 7.75378 15.7493C7.75378 15.7493 7.75378 15.7493 7.75378 15.7493L7.32795 15.3266C7.32795 15.3266 7.32794 15.3266 7.32794 15.3266C7.32794 15.3266 7.32794 15.3266 7.32794 15.3266C7.32794 15.3266 7.32794 15.3266 7.32794 15.3266C7.32794 15.3266 7.32794 15.3266 7.32794 15.3266C7.32793 15.3266 7.32793 15.3266 7.32793 15.3266C7.32793 15.3266 7.32793 15.3266 7.32793 15.3266C7.3279 15.3266 7.32795 15.3266 7.32792 15.3266C7.32792 15.3266 7.32792 15.3266 7.32792 15.3266C7.32791 15.3266 7.32791 15.3266 7.32791 15.3266C7.32791 15.3266 7.3279 15.3266 7.3279 15.3266C7.3279 15.3266 7.3279 15.3266 7.3279 15.3266C7.3279 15.3266 7.3279 15.3266 7.32789 15.3266C7.32787 15.3267 7.32791 15.3266 7.32789 15.3266C7.32789 15.3266 7.32788 15.3266 7.32788 15.3266C7.32788 15.3266 7.32788 15.3266 7.32788 15.3266C7.32788 15.3266 7.32788 15.3266 7.32788 15.3266C7.32788 15.3266 7.32788 15.3266 7.32788 15.3266C7.32787 15.3266 7.32787 15.3266 7.32787 15.3266C7.32787 15.3266 7.32787 15.3266 7.32787 15.3266C7.32787 15.3266 7.32787 15.3266 7.32787 15.3267C7.32787 15.3267 7.32787 15.3267 7.32787 15.3267C7.32787 15.3267 7.32787 15.3267 7.32786 15.3267C7.32786 15.3267 7.32786 15.3267 7.32786 15.3267C7.32785 15.3267 7.32786 15.3267 7.32785 15.3267C7.32785 15.3267 7.32785 15.3267 7.32785 15.3267C7.32785 15.3267 7.32785 15.3267 7.32784 15.3267C7.32783 15.3267 7.32784 15.3267 7.32783 15.3267C7.32782 15.3267 7.32784 15.3267 7.32783 15.3267C7.32782 15.3267 7.32782 15.3267 7.32782 15.3267C7.32782 15.3267 7.32782 15.3267 7.32782 15.3267C7.32782 15.3267 7.32782 15.3267 7.32782 15.3267C7.32781 15.3267 7.32781 15.3267 7.32781 15.3267C7.32781 15.3267 7.32781 15.3267 7.32781 15.3267C7.32781 15.3267 7.32781 15.3267 7.32781 15.3267C7.32781 15.3267 7.32781 15.3267 7.3278 15.3267C7.3278 15.3267 7.3278 15.3267 7.3278 15.3267C7.3278 15.3267 7.3278 15.3267 7.3278 15.3267C7.3278 15.3267 7.3278 15.3267 7.3278 15.3267C7.32779 15.3267 7.32779 15.3267 7.32779 15.3267C7.32778 15.3267 7.3278 15.3267 7.32778 15.3267C7.32778 15.3267 7.32778 15.3267 7.32777 15.3267C7.32777 15.3267 7.32777 15.3268 7.32777 15.3268C7.32776 15.3268 7.32777 15.3268 7.32776 15.3268C7.32776 15.3268 7.32776 15.3268 7.32776 15.3268C7.32774 15.3268 7.32776 15.3268 7.32775 15.3268C7.32775 15.3268 7.32775 15.3268 7.32775 15.3268C7.32775 15.3268 7.32774 15.3268 7.32774 15.3268C7.32774 15.3268 7.32774 15.3268 7.32774 15.3268C7.32774 15.3268 7.32774 15.3268 7.32774 15.3268C7.32774 15.3268 7.32774 15.3268 7.32774 15.3268C7.32773 15.3268 7.32773 15.3268 7.32773 15.3268C7.32773 15.3268 7.32773 15.3268 7.32773 15.3268C7.32773 15.3268 7.32773 15.3268 7.32773 15.3268C7.32773 15.3268 7.32773 15.3268 7.32773 15.3268C7.32773 15.3268 7.32773 15.3268 7.32772 15.3268C7.32772 15.3268 7.32772 15.3268 7.32772 15.3268C7.32771 15.3268 7.32773 15.3268 7.32771 15.3268C7.32771 15.3268 7.32771 15.3268 7.32771 15.3268C7.32771 15.3268 7.32771 15.3268 7.32771 15.3268C7.3277 15.3268 7.3277 15.3268 7.3277 15.3268C7.32769 15.3268 7.3277 15.3268 7.32769 15.3268C7.32768 15.3268 7.32769 15.3268 7.32768 15.3268C7.32768 15.3268 7.32768 15.3268 7.32768 15.3268C7.32768 15.3268 7.32768 15.3268 7.32768 15.3268C7.32768 15.3268 7.32768 15.3268 7.32768 15.3268C7.32767 15.3268 7.32767 15.3268 7.32767 15.3268C7.32767 15.3269 7.32767 15.3269 7.32767 15.3269C7.32767 15.3269 7.32767 15.3269 7.32767 15.3269C7.32767 15.3269 7.32766 15.3269 7.32766 15.3269C7.32766 15.3269 7.32766 15.3269 7.32766 15.3269C7.32766 15.3269 7.32766 15.3269 7.32766 15.3269C7.32765 15.3269 7.32766 15.3269 7.32765 15.3269C7.32763 15.3269 7.32767 15.3268 7.32765 15.3269C7.32764 15.3269 7.32764 15.3269 7.32764 15.3269C7.32764 15.3269 7.32764 15.3269 7.32764 15.3269C7.32764 15.3269 7.32763 15.3269 7.32763 15.3269C7.32762 15.3269 7.32763 15.3269 7.32762 15.3269C7.32762 15.3269 7.32762 15.3269 7.32762 15.3269C7.32759 15.3269 7.32764 15.3269 7.32761 15.3269C7.32761 15.3269 7.32761 15.3269 7.32761 15.3269C7.32761 15.3269 7.32761 15.3269 7.32761 15.3269C7.3276 15.3269 7.32761 15.3269 7.3276 15.3269C7.3276 15.3269 7.3276 15.3269 7.3276 15.3269C7.3276 15.3269 7.3276 15.3269 7.3276 15.3269C7.3276 15.3269 7.3276 15.3269 7.3276 15.3269C7.3276 15.3269 7.32759 15.3269 7.32759 15.3269C7.32759 15.3269 7.32759 15.3269 7.32759 15.3269C7.32759 15.3269 7.32759 15.3269 7.32759 15.3269C7.32759 15.3269 7.32759 15.3269 7.32759 15.3269C7.32757 15.3269 7.32759 15.3269 7.32758 15.3269C7.32758 15.3269 7.32757 15.3269 7.32757 15.3269C7.32757 15.327 7.32757 15.327 7.32757 15.327C7.32756 15.327 7.32757 15.327 7.32756 15.327C7.32755 15.327 7.32756 15.327 7.32755 15.327C7.32755 15.327 7.32755 15.327 7.32755 15.327C7.32754 15.327 7.32755 15.327 7.32754 15.327C7.32754 15.327 7.32754 15.327 7.32754 15.327C7.32754 15.327 7.32754 15.327 7.32754 15.327C7.32754 15.327 7.32754 15.327 7.32753 15.327C7.32753 15.327 7.32753 15.327 7.32753 15.327C7.32753 15.327 7.32753 15.327 7.32753 15.327C7.32753 15.327 7.32753 15.327 7.32753 15.327C7.32752 15.327 7.32752 15.327 7.32752 15.327C7.32752 15.327 7.32752 15.327 7.32752 15.327C7.32752 15.327 7.32752 15.327 7.32752 15.327C7.3275 15.327 7.32752 15.327 7.32751 15.327C7.3275 15.327 7.32751 15.327 7.3275 15.327C7.3275 15.327 7.32749 15.327 7.32749 15.327C7.32749 15.327 7.32749 15.327 7.32749 15.327C7.32748 15.327 7.32748 15.327 7.32748 15.327C7.32747 15.3271 7.32749 15.327 7.32747 15.327C7.32747 15.327 7.32747 15.3271 7.32747 15.3271C7.32747 15.3271 7.32747 15.3271 7.32747 15.3271C7.32746 15.3271 7.32747 15.3271 7.32746 15.3271C7.32746 15.3271 7.32746 15.3271 7.32746 15.3271C7.32746 15.3271 7.32746 15.3271 7.32746 15.3271C7.32746 15.3271 7.32746 15.3271 7.32746 15.3271C7.32746 15.3271 7.32746 15.3271 7.32746 15.3271C7.32746 15.3271 7.32745 15.3271 7.32745 15.3271C7.32745 15.3271 7.32745 15.3271 7.32745 15.3271C7.32745 15.3271 7.32745 15.3271 7.32745 15.3271C7.32745 15.3271 7.32745 15.3271 7.32745 15.3271C7.32743 15.3271 7.32745 15.3271 7.32744 15.3271C7.32744 15.3271 7.32744 15.3271 7.32743 15.3271C7.32743 15.3271 7.32743 15.3271 7.32743 15.3271C7.32743 15.3271 7.32742 15.3271 7.32742 15.3271C7.32741 15.3271 7.32742 15.3271 7.32741 15.3271C7.32741 15.3271 7.32741 15.3271 7.32741 15.3271C7.3274 15.3271 7.32741 15.3271 7.3274 15.3271C7.3274 15.3271 7.3274 15.3271 7.3274 15.3271C7.3274 15.3271 7.3274 15.3271 7.3274 15.3271C7.3274 15.3271 7.3274 15.3271 7.3274 15.3271C7.3274 15.3271 7.32739 15.3271 7.32739 15.3271C7.32739 15.3271 7.32739 15.3271 7.32739 15.3271C7.32739 15.3271 7.32739 15.3271 7.32739 15.3271C7.32739 15.3271 7.32739 15.3271 7.32739 15.3271C7.32738 15.3271 7.32738 15.3271 7.32738 15.3271C7.32738 15.3271 7.32738 15.3271 7.32738 15.3271C7.32735 15.3272 7.3274 15.3271 7.32737 15.3272C7.32737 15.3272 7.32737 15.3272 7.32737 15.3272C7.32736 15.3272 7.32736 15.3272 7.32736 15.3272C7.32736 15.3272 7.32735 15.3272 7.32735 15.3272C7.32735 15.3272 7.32735 15.3272 7.32735 15.3272C7.32735 15.3272 7.32735 15.3272 7.32734 15.3272C7.32732 15.3272 7.32736 15.3272 7.32734 15.3272C7.32734 15.3272 7.32733 15.3272 7.32733 15.3272C7.32733 15.3272 7.32733 15.3272 7.32733 15.3272C7.32733 15.3272 7.32733 15.3272 7.32733 15.3272C7.32733 15.3272 7.32733 15.3272 7.32733 15.3272C7.32732 15.3272 7.32732 15.3272 7.32732 15.3272C7.32732 15.3272 7.32732 15.3272 7.32732 15.3272C7.32732 15.3272 7.32732 15.3272 7.32732 15.3272C7.32732 15.3272 7.32732 15.3272 7.32732 15.3272C7.32732 15.3272 7.32732 15.3272 7.32731 15.3272C7.32731 15.3272 7.32731 15.3272 7.32731 15.3272C7.3273 15.3272 7.32731 15.3272 7.3273 15.3272C7.3273 15.3272 7.3273 15.3272 7.3273 15.3272C7.3273 15.3272 7.3273 15.3272 7.32729 15.3272C7.32728 15.3272 7.32729 15.3272 7.32728 15.3272C7.32727 15.3272 7.32729 15.3272 7.32728 15.3272C7.32727 15.3273 7.32727 15.3273 7.32727 15.3273C7.32727 15.3273 7.32727 15.3273 7.32727 15.3273C7.32727 15.3273 7.32727 15.3273 7.32727 15.3273C7.32726 15.3273 7.32726 15.3273 7.32726 15.3273C7.32726 15.3273 7.32726 15.3273 7.32726 15.3273C7.32726 15.3273 7.32726 15.3273 7.32726 15.3273C7.32726 15.3273 7.32725 15.3273 7.32725 15.3273C7.32725 15.3273 7.32725 15.3273 7.32725 15.3273C7.32725 15.3273 7.32725 15.3273 7.32725 15.3273C7.32725 15.3273 7.32725 15.3273 7.32725 15.3273C7.32724 15.3273 7.32724 15.3273 7.32724 15.3273C7.32723 15.3273 7.32725 15.3273 7.32723 15.3273C7.32723 15.3273 7.32723 15.3273 7.32722 15.3273C7.32722 15.3273 7.32722 15.3273 7.32722 15.3273C7.32721 15.3273 7.32722 15.3273 7.32721 15.3273C7.32721 15.3273 7.32721 15.3273 7.32721 15.3273C7.32719 15.3273 7.32721 15.3273 7.3272 15.3273C7.3272 15.3273 7.3272 15.3273 7.3272 15.3273C7.3272 15.3273 7.32719 15.3273 7.32719 15.3273C7.32719 15.3273 7.32719 15.3273 7.32719 15.3273C7.32719 15.3273 7.32719 15.3273 7.32719 15.3273C7.32719 15.3273 7.32719 15.3273 7.32719 15.3273C7.32718 15.3273 7.32718 15.3273 7.32718 15.3273C7.32718 15.3273 7.32718 15.3273 7.32718 15.3273C7.32718 15.3273 7.32718 15.3273 7.32718 15.3273C7.32718 15.3273 7.32718 15.3273 7.32718 15.3273C7.32718 15.3273 7.32718 15.3273 7.32717 15.3273C7.32717 15.3274 7.32717 15.3274 7.32717 15.3274C7.32716 15.3274 7.32718 15.3273 7.32716 15.3274C7.32716 15.3274 7.32716 15.3274 7.32716 15.3274C7.32716 15.3274 7.32716 15.3274 7.32716 15.3274C7.32715 15.3274 7.32715 15.3274 7.32715 15.3274C7.32714 15.3274 7.32715 15.3274 7.32714 15.3274C7.32713 15.3274 7.32714 15.3274 7.32713 15.3274C7.32713 15.3274 7.32713 15.3274 7.32713 15.3274C7.32713 15.3274 7.32713 15.3274 7.32713 15.3274C7.32713 15.3274 7.32713 15.3274 7.32713 15.3274C7.32712 15.3274 7.32712 15.3274 7.32712 15.3274C7.32712 15.3274 7.32712 15.3274 7.32712 15.3274C7.32712 15.3274 7.32712 15.3274 7.32712 15.3274C7.32712 15.3274 7.32711 15.3274 7.32711 15.3274C7.32711 15.3274 7.32711 15.3274 7.32711 15.3274C7.32711 15.3274 7.32711 15.3274 7.32711 15.3274C7.3271 15.3274 7.32711 15.3274 7.3271 15.3274C7.32708 15.3274 7.32712 15.3274 7.3271 15.3274C7.32709 15.3274 7.32709 15.3274 7.32709 15.3274C7.32709 15.3274 7.32709 15.3274 7.32709 15.3274C7.32709 15.3274 7.32708 15.3274 7.32708 15.3274C7.32707 15.3275 7.32708 15.3274 7.32707 15.3275C7.32707 15.3275 7.32707 15.3275 7.32707 15.3275C7.32704 15.3275 7.32709 15.3274 7.32706 15.3275C7.32706 15.3275 7.32706 15.3275 7.32706 15.3275C7.32706 15.3275 7.32706 15.3275 7.32706 15.3275C7.32705 15.3275 7.32706 15.3275 7.32705 15.3275C7.32705 15.3275 7.32705 15.3275 7.32705 15.3275C7.32705 15.3275 7.32705 15.3275 7.32705 15.3275C7.32705 15.3275 7.32705 15.3275 7.32705 15.3275C7.32705 15.3275 7.32704 15.3275 7.32704 15.3275C7.32704 15.3275 7.32704 15.3275 7.32704 15.3275C7.32704 15.3275 7.32704 15.3275 7.32704 15.3275C7.32704 15.3275 7.32704 15.3275 7.32704 15.3275C7.32702 15.3275 7.32704 15.3275 7.32703 15.3275C7.32702 15.3275 7.32702 15.3275 7.32702 15.3275C7.32702 15.3275 7.32702 15.3275 7.32702 15.3275C7.32701 15.3275 7.32702 15.3275 7.32701 15.3275C7.327 15.3275 7.32701 15.3275 7.327 15.3275C7.327 15.3275 7.327 15.3275 7.327 15.3275C7.32699 15.3275 7.327 15.3275 7.32699 15.3275C7.32699 15.3275 7.32699 15.3275 7.32699 15.3275C7.32699 15.3275 7.32699 15.3275 7.32699 15.3275C7.32699 15.3275 7.32699 15.3275 7.32698 15.3275C7.32698 15.3275 7.32698 15.3275 7.32698 15.3275C7.32698 15.3275 7.32698 15.3275 7.32698 15.3275C7.32698 15.3275 7.32698 15.3276 7.32697 15.3276C7.32697 15.3276 7.32697 15.3276 7.32697 15.3276C7.32697 15.3276 7.32697 15.3276 7.32697 15.3276C7.32697 15.3276 7.32697 15.3276 7.32697 15.3276C7.32695 15.3276 7.32697 15.3276 7.32696 15.3276C7.32695 15.3276 7.32696 15.3276 7.32695 15.3276C7.32695 15.3276 7.32694 15.3276 7.32694 15.3276C7.32694 15.3276 7.32694 15.3276 7.32694 15.3276C7.32693 15.3276 7.32693 15.3276 7.32693 15.3276C7.32692 15.3276 7.32694 15.3276 7.32692 15.3276C7.32692 15.3276 7.32692 15.3276 7.32692 15.3276C7.32692 15.3276 7.32692 15.3276 7.32692 15.3276C7.32691 15.3276 7.32692 15.3276 7.32691 15.3276C7.32691 15.3276 7.32691 15.3276 7.32691 15.3276C7.32691 15.3276 7.32691 15.3276 7.32691 15.3276C7.32691 15.3276 7.32691 15.3276 7.32691 15.3276C7.32691 15.3276 7.32691 15.3276 7.32691 15.3276C7.32691 15.3276 7.3269 15.3276 7.3269 15.3276C7.3269 15.3276 7.3269 15.3276 7.3269 15.3276C7.3269 15.3276 7.3269 15.3276 7.3269 15.3276C7.3269 15.3276 7.3269 15.3276 7.3269 15.3276C7.32688 15.3276 7.3269 15.3276 7.32689 15.3276C7.32689 15.3276 7.32689 15.3276 7.32688 15.3276C7.32688 15.3276 7.32688 15.3276 7.32688 15.3276C7.32688 15.3276 7.32687 15.3277 7.32687 15.3277C7.32686 15.3277 7.32687 15.3277 7.32686 15.3277C7.32686 15.3277 7.32686 15.3277 7.32686 15.3277C7.32685 15.3277 7.32686 15.3277 7.32685 15.3277C7.32685 15.3277 7.32685 15.3277 7.32685 15.3277C7.32685 15.3277 7.32685 15.3277 7.32685 15.3277C7.32685 15.3277 7.32685 15.3277 7.32685 15.3277L7.75268 15.7504ZM6.84138 16.2783C7.18649 16.1861 7.50094 16.0039 7.75264 15.7504L7.32689 15.3276C7.14998 15.5058 6.92896 15.6338 6.6864 15.6987L6.84138 16.2783ZM5.78649 16.2752C6.13163 16.3697 6.49568 16.3708 6.84138 16.2783L6.6864 15.6987C6.44341 15.7637 6.18753 15.7629 5.94494 15.6965L5.78649 16.2752ZM4.87712 15.7405C5.12751 15.9962 5.44134 16.1807 5.78649 16.2752L5.94494 15.6965C5.70235 15.6301 5.48177 15.5004 5.30577 15.3207L4.87712 15.7405ZM4.36147 14.8202C4.44877 15.1673 4.62673 15.4849 4.87712 15.7405L5.30577 15.3207C5.12978 15.141 5.0047 14.9178 4.94333 14.6738L4.36147 14.8202ZM4.36076 14.8174L4.36132 14.8196L4.94348 14.6744L4.94292 14.6722L4.36076 14.8174ZM1.7513 3.17673C1.65791 3.51151 1.65269 3.86524 1.7357 4.20252L2.31831 4.05913C2.25993 3.82188 2.26364 3.57307 2.32923 3.33795L1.7513 3.17673ZM2.26848 2.29145C2.0228 2.53713 1.84466 2.84205 1.7513 3.17673L2.32923 3.33795C2.39485 3.10272 2.52006 2.8884 2.69275 2.71571L2.26848 2.29145ZM3.15376 1.77426C2.81909 1.86762 2.51417 2.04576 2.26848 2.29145L2.69275 2.71571C2.86543 2.54303 3.07975 2.41782 3.31498 2.3522L3.15376 1.77426ZM3.62297 3.45626C3.6682 3.44364 3.71591 3.4429 3.7615 3.4541L3.9046 2.87141C3.75885 2.83562 3.60632 2.838 3.46175 2.87833L3.62297 3.45626ZM3.50324 3.52621C3.53647 3.49298 3.57771 3.46889 3.62297 3.45626L3.46175 2.87833C3.31705 2.91869 3.18521 2.99571 3.07898 3.10194L3.50324 3.52621ZM3.4333 3.64594C3.44592 3.60068 3.47001 3.55944 3.50324 3.52621L3.07898 3.10194C2.97275 3.20817 2.89573 3.34001 2.85536 3.48472L3.4333 3.64594ZM3.43113 3.78446C3.41994 3.73887 3.42068 3.69116 3.4333 3.64594L2.85536 3.48472C2.81503 3.62929 2.81265 3.78181 2.84845 3.92756L3.43113 3.78446ZM3.43112 3.7844C3.43112 3.78439 3.43111 3.78438 3.43111 3.78438C3.43111 3.78438 3.43111 3.78438 3.43111 3.78438C3.43111 3.78438 3.43111 3.78438 3.43111 3.78438C3.43111 3.78438 3.43111 3.78438 3.43111 3.78438C3.43111 3.78438 3.43111 3.78438 3.43111 3.78438C3.43111 3.78438 3.43111 3.78438 3.43111 3.78438C3.43111 3.78438 3.43111 3.78438 3.43111 3.78438C3.43111 3.78438 3.43111 3.78438 3.43111 3.78438C3.43111 3.78438 3.43111 3.78438 3.43111 3.78438C3.43111 3.78437 3.43111 3.78438 3.43111 3.78437C3.43111 3.78437 3.43111 3.78437 3.43111 3.78437C3.43111 3.78437 3.43111 3.78437 3.43111 3.78437C3.43111 3.78437 3.43111 3.78437 3.43111 3.78437C3.43111 3.78437 3.43111 3.78437 3.43111 3.78437C3.43111 3.78437 3.43111 3.78437 3.43111 3.78437C3.43111 3.78437 3.43111 3.78437 3.43111 3.78437C3.43111 3.78437 3.43111 3.78437 3.43111 3.78437C3.2114 4.14731 2.84846 3.9276 2.84846 3.9276C2.84846 3.9276 2.84846 3.9276 2.84846 3.9276C2.84846 3.9276 2.84846 3.9276 2.84846 3.9276C2.84846 3.9276 2.84846 3.9276 2.84846 3.9276C2.84846 3.9276 2.84846 3.9276 2.84846 3.9276C2.84846 3.9276 2.84846 3.9276 2.84846 3.9276C2.84846 3.9276 2.84846 3.9276 2.84846 3.9276C2.84846 3.9276 2.84846 3.9276 2.84846 3.9276C2.84846 3.9276 2.84846 3.92761 2.84846 3.92761C2.84846 3.92761 2.84846 3.92761 2.84846 3.92761C2.84846 3.92761 2.84846 3.92761 2.84846 3.92761C2.84846 3.92762 2.84846 3.92762 2.84846 3.92762C2.84846 3.92763 2.84846 3.9276 2.84846 3.92762C2.84846 3.92762 2.84846 3.92762 2.84846 3.92762C2.84846 3.92762 2.84846 3.92762 2.84846 3.92762C2.84846 3.92762 2.84846 3.92762 2.84846 3.92762C2.84846 3.92762 2.84846 3.92762 2.84846 3.92762C2.84846 3.92762 2.84846 3.92762 2.84846 3.92763C2.84847 3.92764 2.84846 3.92762 2.84847 3.92764C2.84847 3.92765 2.84847 3.92765 2.84847 3.92765C2.84847 3.92765 2.84847 3.92765 2.84847 3.92765C2.84847 3.92765 2.84847 3.92765 2.84847 3.92765C2.84847 3.92765 2.84847 3.92765 2.84847 3.92765C2.84847 3.92765 2.84847 3.92765 2.84847 3.92765C2.84847 3.92765 3.21141 4.14737 3.43112 3.78443C3.43112 3.78443 3.43112 3.78443 3.43112 3.78443C3.43112 3.78443 3.43112 3.78443 3.43112 3.78443C3.43112 3.78443 3.43112 3.78443 3.43112 3.78442C3.43112 3.78442 3.43112 3.78442 3.43112 3.78442C3.43112 3.78441 3.43112 3.78442 3.43112 3.7844L2.84846 3.92763C2.84847 3.92763 2.84847 3.92764 2.84847 3.92765C2.84847 3.92765 2.84847 3.92765 2.84847 3.92765C2.84847 3.92765 2.84847 3.92765 2.84847 3.92765C2.84847 3.92765 2.84847 3.92765 2.84847 3.92765C2.84847 3.92765 2.84847 3.92765 2.84847 3.92765C2.84847 3.92765 2.84847 3.92765 2.84847 3.92765C2.84847 3.92765 2.84847 3.92765 2.84847 3.92765C2.84847 3.92765 2.84847 3.92765 2.84847 3.92765C2.84847 3.92765 2.84847 3.92765 2.84847 3.92765C2.84847 3.92765 2.84847 3.92765 2.84847 3.92765C2.84847 3.92765 2.84847 3.92765 2.84847 3.92765C2.84847 3.92765 2.84847 3.92765 2.84847 3.92765C2.84847 3.92765 2.84847 3.92765 2.84847 3.92765C2.84847 3.92765 2.84847 3.92765 2.84847 3.92765C3.06818 3.56471 3.43112 3.78443 3.43112 3.78443C3.43112 3.78443 3.43112 3.78443 3.43112 3.78443C3.43112 3.78443 3.43112 3.78443 3.43112 3.78443C3.43112 3.78443 3.43112 3.78443 3.43112 3.78443C3.43112 3.78443 3.43112 3.78443 3.43112 3.78443C3.43112 3.78443 3.43112 3.78443 3.43112 3.78443C3.43112 3.78443 3.43112 3.78443 3.43112 3.78443C3.43112 3.78443 3.43112 3.78443 3.43112 3.78443C3.43112 3.78442 3.43112 3.78442 3.43112 3.78442C3.43112 3.78442 3.43112 3.78442 3.43112 3.78442C3.43112 3.78442 3.43112 3.78441 3.43112 3.78441C3.43112 3.78441 3.43112 3.78441 3.43112 3.78441C3.43112 3.78441 3.43112 3.78441 3.43112 3.78441C3.43112 3.78441 3.43112 3.78441 3.43112 3.78441C3.43112 3.78441 3.43112 3.78441 3.43112 3.78441C3.43112 3.78441 3.43112 3.78441 3.43112 3.78441C3.43112 3.78441 3.43112 3.78441 3.43112 3.78441C3.43112 3.7844 3.43112 3.78441 3.43112 3.7844C3.43112 3.7844 3.43112 3.7844 3.43112 3.7844C3.43111 3.78437 3.43112 3.78441 3.43111 3.78438C3.43111 3.78438 3.43111 3.78438 3.43111 3.78438C3.43111 3.78437 3.43111 3.78437 3.43111 3.78437C3.43111 3.78437 3.43111 3.78437 3.43111 3.78437C3.43111 3.78437 3.43111 3.78437 3.43111 3.78437C3.43111 3.78437 3.43111 3.78437 3.43111 3.78437C3.43111 3.78437 3.06817 3.56466 2.84846 3.9276C2.84846 3.9276 2.84846 3.9276 2.84846 3.9276C2.84846 3.9276 2.84846 3.9276 2.84846 3.9276C2.84846 3.9276 2.84846 3.9276 2.84846 3.9276C2.84846 3.9276 2.84846 3.9276 2.84846 3.9276C2.84846 3.9276 2.84846 3.9276 2.84846 3.9276C2.84846 3.92762 2.84846 3.92761 2.84846 3.92763L3.43112 3.7844ZM6.0552 14.3954L3.43102 3.78399L2.84856 3.92803L5.47275 14.5394L6.0552 14.3954ZM6.05477 14.3936C6.05476 14.3936 6.05472 14.3934 6.05468 14.3933C6.05467 14.3932 6.05464 14.3931 6.05461 14.393C6.0546 14.393 6.05449 14.3925 6.05435 14.392C6.05431 14.3918 6.05423 14.3915 6.05413 14.3912C6.05408 14.391 6.05383 14.39 6.05349 14.3887C6.05337 14.3883 6.05289 14.3865 6.05224 14.3843C6.05184 14.3829 6.05068 14.379 6.04991 14.3766C6.04797 14.3707 6.03285 14.3343 6.01649 14.3053C5.67981 14.1793 5.46484 14.4904 5.46758 14.5138C5.46846 14.5191 5.4699 14.5267 5.47037 14.529C5.47065 14.5303 5.47112 14.5324 5.4713 14.5333C5.47143 14.5339 5.47166 14.5349 5.47176 14.5353C5.47211 14.5368 5.4724 14.538 5.47245 14.5382C5.47255 14.5386 5.47263 14.5389 5.47267 14.5391C5.47276 14.5394 5.47283 14.5397 5.47285 14.5398C5.47291 14.54 5.47296 14.5402 5.47297 14.5403C5.47299 14.5404 5.47301 14.5404 5.47302 14.5405C5.47304 14.5406 5.47306 14.5406 5.47307 14.5407C5.47309 14.5407 5.47311 14.5408 5.47312 14.5409C5.47313 14.5409 5.47315 14.541 5.47317 14.5411C5.47318 14.5411 5.4732 14.5412 5.47322 14.5413C5.47323 14.5413 5.47325 14.5414 5.47327 14.5415C5.47328 14.5415 5.47333 14.5417 5.47339 14.5419C5.47342 14.5421 5.47349 14.5423 5.47358 14.5427C5.47362 14.5428 5.47371 14.5432 5.47382 14.5436C5.47386 14.5438 5.47417 14.5449 5.47457 14.5464C5.47468 14.5468 5.47495 14.5478 5.47511 14.5483C5.47533 14.5491 5.47591 14.5512 5.47627 14.5524C5.47692 14.5546 5.47911 14.5615 5.48071 14.5662C5.48795 14.5849 5.8139 14.7633 6.06127 14.5079C6.064 14.4666 6.06 14.4186 6.05882 14.412C6.05831 14.4093 6.05746 14.4052 6.05715 14.4037C6.05663 14.4014 6.0562 14.3995 6.0561 14.3991C6.0558 14.3978 6.05556 14.3968 6.05551 14.3966C6.05542 14.3962 6.05534 14.3959 6.0553 14.3958C6.05517 14.3952 6.05506 14.3948 6.05506 14.3948C6.05503 14.3946 6.055 14.3945 6.05499 14.3945C6.05494 14.3943 6.05491 14.3942 6.0549 14.3941L5.47306 14.5406C5.47306 14.5406 5.47306 14.5406 5.47306 14.5406C5.47305 14.5406 5.47305 14.5406 5.47305 14.5406C5.47304 14.5406 5.47303 14.5405 5.473 14.5404C5.47299 14.5404 5.47297 14.5403 5.47294 14.5401C5.47293 14.5401 5.47283 14.5397 5.47269 14.5392C5.47265 14.539 5.47258 14.5387 5.47249 14.5383C5.47244 14.5381 5.47219 14.5371 5.4719 14.5358C5.4718 14.5354 5.47136 14.5336 5.47085 14.5312C5.47054 14.5297 5.46969 14.5256 5.46917 14.5229C5.468 14.5163 5.464 14.4684 5.46673 14.4271C5.7141 14.1716 6.04005 14.35 6.04729 14.3687C6.04889 14.3735 6.05108 14.3804 6.05173 14.3825C6.05209 14.3838 6.05267 14.3858 6.05289 14.3866C6.05305 14.3871 6.05332 14.3881 6.05343 14.3885C6.05383 14.39 6.05413 14.3912 6.05418 14.3913C6.05429 14.3918 6.05438 14.3921 6.05442 14.3923C6.05451 14.3926 6.05458 14.3929 6.0546 14.393C6.05467 14.3932 6.05471 14.3934 6.05473 14.3934C6.05475 14.3935 6.05476 14.3936 6.05477 14.3936C6.05479 14.3937 6.0548 14.3938 6.05481 14.3938C6.05482 14.3938 6.05483 14.3939 6.05483 14.3939C6.05484 14.3939 6.05485 14.3939 6.05486 14.394C6.05486 14.394 6.05488 14.394 6.0549 14.3941C6.05491 14.3942 6.05492 14.3942 6.05494 14.3943C6.05495 14.3944 6.055 14.3945 6.05506 14.3948C6.05509 14.3949 6.05515 14.3952 6.05524 14.3955C6.05528 14.3957 6.05536 14.396 6.05546 14.3964C6.05551 14.3966 6.0558 14.3978 6.05615 14.3993C6.05625 14.3997 6.05648 14.4007 6.05661 14.4013C6.05679 14.4021 6.05726 14.4043 6.05754 14.4056C6.05801 14.4079 6.05945 14.4155 6.06033 14.4208C6.06307 14.4442 5.8481 14.7552 5.51142 14.6292C5.49506 14.6003 5.47994 14.5639 5.478 14.558C5.47723 14.5555 5.47607 14.5517 5.47567 14.5503C5.47502 14.548 5.47454 14.5463 5.47442 14.5458C5.47409 14.5446 5.47383 14.5436 5.47378 14.5434C5.47368 14.543 5.4736 14.5427 5.47356 14.5426C5.47342 14.542 5.47331 14.5416 5.47331 14.5416C5.47327 14.5415 5.47325 14.5414 5.47324 14.5413C5.47321 14.5412 5.4732 14.5412 5.47319 14.5412C5.47319 14.5411 5.47319 14.5411 5.47319 14.5411C5.47318 14.5411 5.47318 14.5411 5.47318 14.5411L6.05477 14.3936ZM6.12465 14.5186C6.09124 14.4845 6.06676 14.441 6.05479 14.3937L5.47316 14.541C5.51091 14.6901 5.58772 14.8279 5.696 14.9385L6.12465 14.5186ZM6.24764 14.591C6.20096 14.5782 6.15852 14.5532 6.12465 14.5186L5.696 14.9385C5.80426 15.049 5.93996 15.1288 6.08919 15.1697L6.24764 14.591ZM6.39032 14.5914C6.34356 14.6039 6.29432 14.6037 6.24764 14.591L6.08919 15.1697C6.23842 15.2105 6.39583 15.211 6.5453 15.171L6.39032 14.5914ZM6.51373 14.5198C6.47966 14.5542 6.43707 14.5789 6.39031 14.5914L6.5453 15.171C6.69477 15.1311 6.83094 15.0521 6.93986 14.9422L6.51373 14.5198ZM6.51593 14.5176L6.51415 14.5194L6.93945 14.9426L6.94123 14.9408L6.51593 14.5176ZM8.80888 12.2246L6.51645 14.5171L6.94071 14.9413L9.23315 12.6489L8.80888 12.2246ZM9.42626 11.9689C9.1947 11.9689 8.97262 12.0609 8.80888 12.2246L9.23315 12.6489C9.28436 12.5977 9.35383 12.5689 9.42626 12.5689V11.9689ZM10.0436 12.2246C9.8799 12.0609 9.65783 11.9689 9.42626 11.9689V12.5689C9.4987 12.5689 9.56816 12.5977 9.61938 12.6489L10.0436 12.2246ZM14.226 16.407L10.0436 12.2246L9.61938 12.6489L13.8017 16.8312L14.226 16.407ZM16.4258 13.8178L13.8031 16.4056L14.2245 16.8327L16.8473 14.2449L16.4258 13.8178ZM12.2475 10.0666L16.4244 14.2435L16.8487 13.8192L12.6718 9.64234L12.2475 10.0666ZM11.9918 9.44923C11.9918 9.68079 12.0838 9.90287 12.2475 10.0666L12.6718 9.64234C12.6206 9.59113 12.5918 9.52166 12.5918 9.44923H11.9918ZM12.2475 8.83185C12.0838 8.99559 11.9918 9.21767 11.9918 9.44923H12.5918C12.5918 9.37679 12.6206 9.30733 12.6718 9.25611L12.2475 8.83185ZM14.5374 6.54198L12.2475 8.83185L12.6718 9.25611L14.9617 6.96624L14.5374 6.54198ZM14.5365 6.54289C14.5364 6.54295 14.5363 6.54308 14.536 6.54342L14.9631 6.9648C14.9635 6.96441 14.9641 6.96381 14.9647 6.96314L14.5365 6.54289ZM14.6067 6.41765C14.5949 6.46487 14.5707 6.50808 14.5366 6.5428L14.9647 6.96323C15.0737 6.85223 15.1511 6.7141 15.1888 6.56313L14.6067 6.41765ZM14.6035 6.27352C14.6175 6.32041 14.6186 6.37019 14.6067 6.41765L15.1888 6.56313C15.2267 6.4114 15.2232 6.25227 15.1786 6.10237L14.6035 6.27352ZM14.5274 6.1511C14.5633 6.18435 14.5896 6.22663 14.6035 6.27352L15.1786 6.10237C15.134 5.95247 15.0499 5.81731 14.9352 5.711L14.5274 6.1511ZM14.3995 6.0845C14.4473 6.09485 14.4915 6.11785 14.5274 6.1511L14.9352 5.711C14.8205 5.6047 14.6793 5.53117 14.5265 5.49808L14.3995 6.0845ZM14.3789 6.07975L14.3952 6.08354L14.5307 5.49904L14.5144 5.49525L14.3789 6.07975ZM3.76103 3.45398L14.3746 6.07873L14.5187 5.49627L3.90507 2.87153L3.76103 3.45398ZM3.76144 3.45408C3.76145 3.45409 3.76145 3.45409 3.76146 3.45409C3.76146 3.45409 3.76146 3.45409 3.76146 3.45409C3.76146 3.45409 3.76146 3.45409 3.76146 3.45409C3.76146 3.45409 3.76146 3.45409 3.76146 3.45409C3.76146 3.45409 3.76146 3.45409 3.76146 3.45409C4.1244 3.23437 3.90469 2.87143 3.90469 2.87143C3.90469 2.87143 3.90469 2.87143 3.90469 2.87143C3.90469 2.87143 3.90469 2.87143 3.90469 2.87143C3.90469 2.87143 3.90469 2.87143 3.90469 2.87143C3.90469 2.87143 3.90469 2.87143 3.90469 2.87143C3.90469 2.87143 3.90469 2.87143 3.90469 2.87143C3.90469 2.87143 3.90469 2.87143 3.90469 2.87143C3.90468 2.87143 3.90468 2.87143 3.90468 2.87143C3.90467 2.87143 3.90468 2.87143 3.90467 2.87143C3.90467 2.87143 3.90467 2.87143 3.90467 2.87143C3.90466 2.87143 3.90468 2.87143 3.90467 2.87143C3.90466 2.87143 3.90467 2.87143 3.90467 2.87143C3.90466 2.87143 3.90467 2.87143 3.90466 2.87143C3.90466 2.87143 3.90466 2.87143 3.90466 2.87143C3.90462 2.87142 3.90469 2.87143 3.90464 2.87142C3.90464 2.87142 3.90464 2.87142 3.90464 2.87142C3.90462 2.87142 3.90466 2.87143 3.90464 2.87142C3.90464 2.87142 3.90464 2.87142 3.90464 2.87142C3.90463 2.87142 3.90464 2.87142 3.90464 2.87142C3.90463 2.87142 3.90463 2.87142 3.90463 2.87142C3.90463 2.87142 3.90463 2.87142 3.90463 2.87142C3.90463 2.87142 3.90463 2.87142 3.90463 2.87142C3.90463 2.87142 3.90463 2.87142 3.90463 2.87142C3.90463 2.87142 4.12435 3.23436 3.76141 3.45408C3.76141 3.45408 3.76141 3.45408 3.76141 3.45408C3.76141 3.45408 3.76141 3.45408 3.76141 3.45408C3.76141 3.45408 3.76141 3.45408 3.76141 3.45408C3.76141 3.45408 3.76141 3.45408 3.76141 3.45408C3.76141 3.45408 3.76141 3.45408 3.76141 3.45408C3.76141 3.45408 3.76141 3.45408 3.76141 3.45408C3.76141 3.45408 3.76141 3.45408 3.76141 3.45408C3.76141 3.45408 3.76141 3.45408 3.76141 3.45408C3.76141 3.45408 3.76141 3.45408 3.76141 3.45408C3.76141 3.45408 3.76141 3.45408 3.76141 3.45408C3.76141 3.45408 3.76141 3.45408 3.76141 3.45408C3.76141 3.45408 3.76141 3.45408 3.76141 3.45408C3.76141 3.45408 3.76141 3.45408 3.76141 3.45408C3.76141 3.45408 3.76141 3.45408 3.76141 3.45408C3.76141 3.45408 3.76141 3.45408 3.76141 3.45408C3.76142 3.45408 3.76142 3.45408 3.76144 3.45408L3.90466 2.87143C3.90465 2.87142 3.90465 2.87142 3.90464 2.87142C3.90464 2.87142 3.90464 2.87142 3.90464 2.87142C3.90463 2.87142 3.90464 2.87142 3.90463 2.87142C3.90463 2.87142 3.90463 2.87142 3.90463 2.87142C3.90463 2.87142 3.90463 2.87142 3.90463 2.87142C3.90463 2.87142 3.90463 2.87142 3.90463 2.87142C3.54169 3.09114 3.76141 3.45408 3.76141 3.45408C3.76141 3.45408 3.76141 3.45408 3.76141 3.45408C3.76141 3.45408 3.76141 3.45408 3.76141 3.45408C3.76141 3.45408 3.76141 3.45408 3.76141 3.45408C3.76141 3.45408 3.76141 3.45408 3.76141 3.45408C3.76141 3.45408 3.76141 3.45408 3.76142 3.45408C3.76142 3.45408 3.76142 3.45408 3.76142 3.45408C3.76142 3.45408 3.76142 3.45408 3.76142 3.45408C3.76144 3.45408 3.76141 3.45408 3.76143 3.45408C3.76143 3.45408 3.76143 3.45408 3.76144 3.45408C3.76147 3.45409 3.76142 3.45408 3.76145 3.45409C3.76145 3.45409 3.76145 3.45409 3.76145 3.45409C3.76148 3.45409 3.76142 3.45408 3.76145 3.45409C3.76148 3.45409 3.76144 3.45408 3.76146 3.45409C3.76146 3.45409 3.76146 3.45409 3.76146 3.45409C3.76146 3.45409 3.76146 3.45409 3.76146 3.45409C3.76146 3.45409 3.76146 3.45409 3.76146 3.45409C3.76146 3.45409 3.76146 3.45409 3.76146 3.45409C3.76146 3.45409 3.76146 3.45409 3.76146 3.45409C3.76146 3.45409 3.76146 3.45409 3.76146 3.45409C3.76146 3.45409 3.76146 3.45409 3.76146 3.45409C3.76146 3.45409 3.54175 3.09115 3.90469 2.87143C3.90469 2.87143 3.90469 2.87143 3.90469 2.87143C3.90469 2.87143 3.90469 2.87143 3.90469 2.87143C3.90469 2.87143 3.90469 2.87143 3.90469 2.87143C3.90469 2.87143 3.90469 2.87143 3.90469 2.87143C3.90468 2.87143 3.90468 2.87143 3.90468 2.87143C3.90468 2.87143 3.90468 2.87143 3.90468 2.87143C3.90468 2.87143 3.90468 2.87143 3.90468 2.87143C3.90468 2.87143 3.90468 2.87143 3.90468 2.87143C3.90467 2.87143 3.90468 2.87143 3.90466 2.87143L3.76144 3.45408ZM1.73578 4.20285L4.36061 14.8168L4.94307 14.6728L2.31823 4.0588L1.73578 4.20285Z" fill="black" mask="url(#path-1-outside-1_670_292)"/>
</g>
</g>
</svg>
