<svg width="21" height="20" viewBox="0 0 21 20" fill="none" xmlns="http://www.w3.org/2000/svg">
<g id="live area">
<g id="Vector 2">
<path d="M16.2463 10.1973L7.90349 16.6862C7.73927 16.8139 7.5 16.6969 7.5 16.4888L7.5 3.51116C7.5 3.30312 7.73927 3.1861 7.90349 3.31382L16.2463 9.80266C16.375 9.90275 16.375 10.0972 16.2463 10.1973Z" stroke="#2D2D2D" stroke-width="1.6" stroke-linecap="round"/>
<path d="M16.2463 10.1973L7.90349 16.6862C7.73927 16.8139 7.5 16.6969 7.5 16.4888L7.5 3.51116C7.5 3.30312 7.73927 3.1861 7.90349 3.31382L16.2463 9.80266C16.375 9.90275 16.375 10.0972 16.2463 10.1973Z" stroke="black" stroke-opacity="0.2" stroke-width="1.6" stroke-linecap="round"/>
<path d="M16.2463 10.1973L7.90349 16.6862C7.73927 16.8139 7.5 16.6969 7.5 16.4888L7.5 3.51116C7.5 3.30312 7.73927 3.1861 7.90349 3.31382L16.2463 9.80266C16.375 9.90275 16.375 10.0972 16.2463 10.1973Z" stroke="black" stroke-opacity="0.2" stroke-width="1.6" stroke-linecap="round"/>
</g>
</g>
</svg>
